<?xml version="1.0" standalone="no"?>
<!DOCTYPE svg PUBLIC "-//W3C//DTD SVG 20010904//EN"
 "http://www.w3.org/TR/2001/REC-SVG-20010904/DTD/svg10.dtd">
<svg version="1.0" xmlns="http://www.w3.org/2000/svg"
 width="650.000000pt" height="650.000000pt" viewBox="0 0 650.000000 650.000000"
 preserveAspectRatio="xMidYMid meet">
<metadata>
Created by potrace 1.14, written by Peter Selinger 2001-2017
</metadata>
<g transform="translate(0.000000,650.000000) scale(0.100000,-0.100000)"
fill="#000000" stroke="none">
<path d="M0 6428 l0 -73 153 -75 c83 -41 157 -75 162 -75 12 -2 65 -24 85 -36
8 -5 25 -13 38 -19 12 -5 22 -12 22 -16 0 -8 -53 5 -60 14 -7 9 -69 33 -97 37
-11 2 -30 6 -42 10 -11 3 -33 8 -48 11 -75 12 -101 21 -205 72 -5 2 -8 -198
-8 -445 l0 -450 25 -23 c33 -31 50 -83 35 -109 -8 -16 -7 -22 10 -31 10 -6 32
-11 47 -11 124 -1 138 -4 160 -29 20 -23 20 -26 5 -43 -9 -10 -45 -34 -79 -54
-68 -37 -77 -48 -87 -104 -7 -41 -24 -59 -79 -84 l-37 -17 0 -135 c0 -122 2
-134 18 -132 22 4 62 -10 62 -21 0 -4 7 -11 16 -14 18 -7 64 31 64 53 0 24 40
59 59 54 18 -5 32 -39 48 -118 7 -32 13 -41 33 -43 31 -4 60 40 60 88 0 34 20
79 44 99 9 8 16 22 16 32 0 29 15 30 45 5 15 -13 38 -23 50 -23 23 0 40 21 30
37 -3 5 -1 11 5 15 5 3 10 16 10 29 0 23 28 55 68 75 25 13 51 2 98 -41 21
-19 21 -19 32 9 6 15 16 45 22 65 14 45 79 101 112 96 14 -2 29 -16 39 -35 23
-46 50 -85 55 -80 3 2 13 34 23 70 23 78 53 122 94 137 47 16 74 12 102 -15
21 -22 25 -36 27 -88 6 -168 -11 -244 -59 -266 -14 -6 -52 -14 -84 -18 -48 -5
-63 -3 -78 12 -25 22 -36 15 -66 -46 -29 -57 -52 -66 -128 -51 -49 9 -52 9
-77 -18 -37 -39 -84 -61 -149 -67 -31 -3 -65 -13 -76 -23 -47 -40 -97 -62
-150 -65 -42 -3 -63 -10 -90 -32 -19 -15 -88 -48 -155 -73 l-120 -45 0 -517 0
-518 63 0 c35 -1 69 -6 79 -14 26 -19 32 -66 19 -153 -20 -140 -49 -376 -60
-480 -10 -99 -25 -153 -43 -153 -5 0 -20 12 -33 26 l-25 27 0 -137 c0 -79 4
-136 10 -136 27 0 28 -192 0 -274 -6 -17 -10 -184 -10 -402 l0 -372 52 -4 c66
-4 100 1 93 13 -4 5 -1 9 4 9 6 0 11 9 11 20 0 24 29 40 104 56 108 22 166 -4
166 -75 l0 -38 133 -2 c72 -1 231 -5 351 -9 257 -8 260 -7 293 79 11 30 17 56
12 59 -5 3 -1 13 9 22 61 58 95 103 131 173 23 44 54 94 70 110 64 70 74 93
76 176 2 81 5 90 98 279 19 37 61 39 82 3 9 -15 41 -44 71 -63 30 -19 54 -37
54 -40 0 -3 20 -16 44 -30 40 -21 48 -22 69 -11 39 21 54 9 26 -20 -13 -14
-30 -24 -36 -22 -7 3 -13 1 -13 -4 0 -11 -103 -64 -132 -67 -22 -3 -213 -164
-213 -179 0 -7 -8 -15 -18 -19 -11 -5 -15 -13 -11 -19 4 -8 3 -9 -4 -5 -7 4
-12 2 -12 -3 0 -6 -7 -11 -15 -11 -8 0 -15 -6 -15 -13 0 -7 -9 -21 -21 -30
-11 -10 -18 -24 -15 -32 3 -9 0 -12 -10 -8 -8 3 -14 -1 -14 -11 0 -9 -7 -16
-16 -16 -10 0 -14 -6 -10 -15 3 -8 1 -15 -4 -15 -10 0 -60 -51 -60 -62 0 -4
-11 -19 -25 -34 -14 -15 -31 -39 -38 -53 -8 -14 -26 -47 -40 -72 -14 -26 -23
-49 -20 -53 4 -3 2 -6 -4 -6 -6 0 -13 -12 -17 -28 -33 -151 -34 -155 -42 -226
-2 -27 -7 -53 -10 -58 -3 -4 -1 -8 5 -8 6 0 9 -18 6 -46 -3 -29 0 -53 7 -62 9
-11 9 -14 1 -9 -12 8 -12 -5 2 -78 4 -22 12 -46 18 -53 17 -21 11 -85 -13
-137 -13 -27 -24 -57 -25 -65 -1 -9 -9 -31 -18 -50 -22 -52 -38 -103 -32 -108
3 -3 -1 -12 -9 -21 -14 -16 -26 -58 -29 -99 -1 -14 -7 -20 -15 -17 -8 3 -10 0
-6 -7 4 -6 0 -16 -9 -23 -9 -6 -19 -23 -22 -38 l-7 -28 411 1 c241 1 413 5
416 11 4 5 14 5 25 -1 25 -13 350 -13 350 0 0 6 -4 10 -10 10 -9 0 -40 61 -55
108 l-7 24 20 -20 c11 -11 23 -29 26 -39 4 -11 18 -25 32 -32 16 -7 24 -17 21
-26 -3 -7 1 -19 9 -26 12 -10 13 -9 8 5 -5 12 -2 15 10 10 9 -3 13 -10 10 -15
-3 -5 11 -9 31 -9 l36 0 -33 31 c-18 17 -43 38 -56 46 -13 9 -21 22 -18 29 3
8 -1 14 -9 14 -8 0 -27 16 -42 36 -15 19 -36 45 -46 57 -19 21 -67 110 -67
122 0 4 5 3 12 -1 8 -5 9 -2 5 10 -4 10 -7 20 -7 22 0 2 -5 4 -11 4 -5 0 -7
-6 -3 -12 4 -8 2 -8 -7 1 -11 10 -11 15 -2 18 20 7 16 17 -27 62 -40 41 -51
59 -29 45 7 -4 10 -1 7 7 -3 8 -10 13 -16 12 -14 -3 -68 69 -64 86 2 8 -1 10
-9 5 -9 -5 -10 -2 -6 9 3 9 -7 61 -23 115 -31 105 -42 184 -28 204 7 10 8 9 6
-2 -2 -8 2 -16 7 -18 6 -1 10 6 11 16 3 45 16 92 24 87 6 -3 7 1 4 9 -8 22 12
20 21 -1 5 -10 8 -29 7 -43 l-1 -25 8 25 c4 14 4 30 -2 38 -6 8 -6 12 2 12 7
0 9 5 6 10 -3 6 -2 10 3 10 5 0 22 26 37 57 37 72 92 128 151 153 25 11 50 20
56 20 6 0 -14 -27 -44 -59 -31 -33 -58 -72 -61 -89 -9 -44 9 -190 32 -252 44
-123 101 -243 142 -300 16 -22 29 -42 29 -45 0 -7 86 -93 174 -174 105 -96
289 -210 366 -226 19 -4 40 -11 45 -15 10 -8 104 -26 118 -22 4 1 7 -2 7 -6 0
-5 6 -9 13 -10 131 -10 163 -15 173 -23 8 -7 14 -6 19 1 4 6 21 9 38 7 26 -3
33 -9 38 -33 l7 -29 1 30 c1 28 4 30 38 29 92 -1 300 50 396 98 82 41 197 128
280 211 48 49 87 92 87 97 0 4 9 19 21 34 18 23 23 25 38 14 14 -12 14 -11 3
4 -18 22 -6 40 21 33 19 -5 20 -4 5 5 -20 13 -16 25 29 94 18 28 33 54 33 58
0 4 5 19 12 35 6 15 12 30 13 33 1 3 6 16 12 30 17 37 26 63 28 80 1 8 5 26 8
40 9 32 -36 -62 -54 -115 -21 -61 -76 -149 -83 -133 -3 7 -4 4 -1 -7 3 -13 -8
-34 -33 -61 -44 -48 -95 -83 -86 -59 4 8 12 15 20 15 24 0 15 20 -8 21 -18 1
-19 2 -5 6 9 2 15 9 12 14 -4 5 -2 9 3 9 5 0 10 11 10 25 0 14 8 32 18 40 11
7 16 17 11 21 -4 4 0 19 9 32 16 24 15 26 -1 38 -12 9 -16 22 -13 43 3 17 1
31 -4 31 -4 0 -8 -5 -8 -11 0 -5 -5 -7 -12 -3 -8 5 -6 11 5 19 18 13 23 35 8
35 -5 0 -12 8 -16 17 -4 11 5 7 24 -11 33 -32 41 -25 15 12 -8 12 -12 23 -7
23 4 1 19 3 32 4 24 2 24 2 5 -12 -10 -9 -13 -13 -4 -11 16 5 54 68 41 68 -5
0 -14 15 -20 32 -9 26 -9 35 1 43 7 6 19 20 26 33 10 18 10 22 -3 22 -20 0
-19 7 5 32 24 26 26 40 5 32 -8 -4 -15 -1 -15 6 0 6 -6 8 -13 5 -6 -4 0 5 16
19 29 27 40 59 12 36 -12 -10 -15 -10 -15 4 0 10 8 16 23 16 12 0 29 5 37 10
12 8 11 10 -6 10 -32 0 -35 11 -11 32 l22 19 -22 -6 c-17 -5 -23 -2 -23 9 0
11 9 16 30 16 28 0 30 -3 36 -49 5 -42 10 -50 39 -64 37 -18 112 -111 146
-180 14 -29 29 -46 38 -44 8 1 22 -11 30 -28 8 -16 20 -36 28 -43 7 -7 13 -24
13 -38 0 -17 7 -25 24 -30 16 -4 32 -23 51 -59 32 -64 38 -148 20 -257 -7 -40
-16 -93 -19 -118 -6 -47 -20 -117 -38 -185 -6 -22 -12 -49 -13 -60 -7 -42 -36
-147 -45 -165 -10 -19 -1 -19 301 -20 270 0 310 2 306 15 -9 22 14 30 30 10
12 -17 13 -17 13 -2 0 9 -4 17 -10 17 -5 0 -10 9 -10 19 0 11 -3 21 -7 23 -16
6 -50 134 -46 165 3 18 2 41 -2 50 -4 10 -9 70 -10 134 -1 64 -5 121 -8 126
-6 10 -27 131 -32 180 -2 33 -6 34 -65 19 -54 -14 -54 -14 -30 5 14 10 31 17
38 14 7 -3 16 3 19 13 4 9 14 23 22 30 14 12 14 13 -3 8 -15 -5 -17 -2 -13 14
3 11 1 20 -4 20 -11 0 -12 27 -1 33 4 2 1 2 -6 0 -8 -1 -21 -3 -30 -3 -15 -1
-14 -3 2 -15 11 -8 16 -18 11 -22 -4 -5 -10 -2 -12 5 -3 6 -10 12 -16 12 -7 0
-13 11 -13 25 -1 14 2 25 7 25 5 0 9 -4 9 -10 0 -22 15 -8 16 15 1 14 -2 25
-8 25 -5 0 -7 13 -3 30 4 18 2 30 -3 30 -15 0 -20 -22 -11 -47 7 -19 4 -24
-16 -29 -21 -5 -23 -8 -10 -21 20 -19 19 -21 -9 -19 -13 0 -22 4 -19 9 7 11
-7 47 -19 47 -5 0 -7 -7 -4 -16 5 -12 2 -15 -10 -10 -14 5 -15 4 -5 -8 8 -10
9 -16 1 -21 -10 -6 -11 -5 -14 18 -4 23 27 48 51 42 13 -3 23 -1 23 5 0 5 -7
10 -15 10 -21 0 -8 27 17 33 19 5 19 7 5 21 -20 20 -28 20 -20 0 4 -10 -1 -17
-15 -21 -13 -3 -19 -10 -15 -20 5 -12 1 -14 -18 -8 -13 4 -27 13 -31 19 -4 6
-8 7 -8 2 0 -4 -11 -1 -25 8 -14 9 -29 15 -33 12 -4 -2 -16 3 -27 11 -16 13
-17 15 -2 10 39 -14 7 41 -33 56 -9 3 -6 6 9 6 l24 1 -27 21 c-15 11 -33 18
-41 15 -17 -6 -21 9 -5 19 13 8 3 25 -13 25 -7 0 -6 -4 3 -10 12 -7 8 -10 -14
-10 -24 0 -26 2 -16 14 9 12 7 17 -9 28 -24 15 -27 25 -8 31 6 2 1 2 -13 0
-14 -3 -22 -1 -18 3 9 9 -11 36 -22 29 -4 -3 -7 3 -6 12 0 10 -17 25 -46 40
-27 13 -48 28 -48 32 0 14 -37 51 -44 44 -3 -3 -6 -1 -6 6 0 8 -8 10 -23 7
-12 -3 -16 -3 -9 0 23 11 12 24 -15 19 -16 -3 -22 -2 -16 1 7 3 13 10 13 15 0
6 -4 7 -10 4 -6 -3 -7 1 -4 9 6 14 -5 21 -28 17 -10 -1 -31 39 -24 47 4 3 20
-4 36 -16 16 -12 32 -22 36 -22 4 0 25 -15 48 -33 47 -39 87 -62 99 -59 5 1 5
-3 1 -9 -4 -8 19 -36 61 -75 52 -47 83 -68 124 -80 31 -10 65 -23 76 -30 11
-7 39 -18 62 -24 70 -21 134 -77 153 -135 15 -44 26 -56 88 -100 66 -48 225
-195 301 -279 18 -21 46 -42 62 -48 31 -11 76 -73 71 -98 -3 -11 -1 -12 8 -4
9 9 26 4 68 -18 32 -17 69 -37 85 -45 15 -8 27 -19 27 -24 0 -5 7 -9 16 -9 12
0 15 -6 11 -22 -8 -34 -18 -104 -13 -93 3 6 10 29 16 53 6 23 16 42 21 42 6 0
28 -13 49 -30 21 -16 44 -30 53 -30 8 0 31 -11 51 -25 20 -14 45 -25 55 -25
10 0 29 -8 42 -19 13 -10 35 -22 49 -26 53 -15 159 -71 159 -82 1 -7 -3 -13
-8 -13 -5 0 -27 -18 -50 -40 -30 -29 -41 -48 -41 -70 0 -16 3 -30 8 -30 7 1
60 80 75 115 6 13 11 16 14 7 3 -7 -2 -28 -11 -46 -9 -19 -16 -39 -16 -45 0
-6 -4 -11 -10 -11 -5 0 -10 -4 -10 -10 0 -5 17 -10 38 -9 28 0 32 2 17 8 -16
7 -14 9 14 14 47 10 51 9 51 -8 0 -10 11 -15 35 -15 19 0 35 4 35 9 0 42 -58
109 -102 118 -16 3 -25 10 -21 16 3 6 -7 21 -23 34 -26 20 -27 23 -9 24 12 0
5 6 -19 15 -21 8 -45 19 -53 26 -13 10 -12 14 4 26 16 12 12 13 -34 11 -29 -2
-56 0 -59 4 -4 4 -15 7 -25 7 -24 0 -33 37 -24 96 4 29 11 44 18 41 7 -3 20
-8 30 -12 10 -5 17 -3 17 5 0 9 7 7 25 -4 33 -22 35 -21 35 17 0 35 -25 67
-51 67 -8 0 -25 -7 -37 -16 -12 -8 -22 -12 -22 -7 -1 4 -10 -3 -20 -16 -11
-13 -26 -21 -34 -18 -9 4 -17 -2 -21 -14 -4 -13 -15 -19 -36 -19 -16 0 -29 4
-29 10 0 5 -16 9 -35 8 -41 -1 -56 9 -35 23 12 8 9 9 -10 7 -16 -2 -24 2 -22
10 1 6 -1 11 -5 11 -5 -1 -15 -1 -23 0 -13 1 -13 3 -1 10 8 5 16 20 17 33 2
13 0 17 -2 11 -9 -21 -42 -15 -55 9 l-12 22 -23 -27 c-13 -15 -25 -27 -27 -27
-11 0 3 43 31 93 18 31 32 67 32 80 0 22 3 23 60 19 42 -3 74 1 105 13 25 9
51 15 58 12 6 -2 23 0 35 5 13 4 29 5 35 1 12 -7 90 -14 132 -12 11 0 54 1 96
2 46 1 82 7 92 15 9 8 22 10 28 6 7 -4 27 -7 46 -6 18 1 33 -3 33 -8 0 -4 18
-1 40 7 l40 16 0 428 c0 235 -3 434 -6 443 -3 9 -11 13 -16 10 -6 -4 -14 -1
-18 6 -5 8 -13 9 -21 4 -8 -5 -48 -10 -89 -11 -41 -1 -88 -3 -103 -4 -18 -1
-35 6 -48 20 -15 15 -32 21 -65 21 -25 0 -43 4 -39 9 6 11 -31 25 -44 16 -14
-8 -2 -35 15 -35 10 0 14 -14 14 -51 l0 -51 -72 5 c-91 6 -128 15 -149 36 -25
26 -39 81 -35 136 2 28 -2 83 -10 123 -8 40 -14 137 -14 220 0 81 -1 158 -2
172 -1 14 -1 96 0 182 2 151 3 157 27 186 23 28 26 62 4 62 -29 0 -31 150 -2
182 34 37 93 18 120 -39 22 -48 20 -99 -6 -134 -20 -26 -20 -30 -5 -36 17 -6
364 13 402 23 27 8 28 25 2 49 -26 24 -25 60 3 109 29 51 64 76 115 83 l42 6
0 151 c-1 136 -2 149 -16 131 -8 -11 -20 -27 -27 -35 -7 -8 -34 -46 -61 -84
-72 -101 -128 -118 -172 -51 -13 20 -15 55 -12 227 l3 203 59 73 c84 104 143
112 196 27 12 -19 24 -35 26 -35 2 0 4 118 4 261 0 226 -2 260 -14 250 -20
-17 -67 -10 -80 11 -16 26 11 68 44 68 14 0 31 -5 38 -12 9 -9 12 44 12 238
l0 250 -35 17 c-23 11 -35 24 -35 37 0 35 19 60 45 60 l25 0 0 895 0 895 -490
0 c-269 0 -490 -3 -490 -8 0 -4 -22 -17 -48 -30 -26 -12 -75 -48 -109 -80 -33
-31 -75 -65 -92 -74 -19 -11 -31 -25 -31 -38 0 -54 -59 -110 -117 -110 -10 0
-43 -13 -73 -29 -30 -16 -77 -36 -105 -44 -27 -8 -75 -26 -105 -40 -30 -13
-71 -28 -90 -33 -118 -27 -151 -29 -162 -11 -15 28 -61 21 -79 -12 -20 -35
-109 -102 -164 -123 -42 -17 -117 -45 -150 -58 -115 -43 -196 -62 -244 -55
-43 6 -51 10 -52 28 -1 18 -2 19 -6 4 -11 -42 58 -140 87 -122 5 3 11 1 15 -4
3 -6 23 -2 48 9 23 11 57 20 74 20 18 0 47 9 65 20 18 11 48 20 67 20 21 0 44
9 63 25 35 30 69 32 92 6 33 -37 -18 -81 -94 -81 -21 0 -40 -4 -42 -9 -1 -6
-25 -15 -53 -22 -66 -16 -83 -24 -130 -63 l-39 -33 44 -72 c25 -40 50 -81 56
-92 7 -12 17 -26 23 -32 17 -17 13 -31 -4 -17 -17 14 -21 0 -4 -17 14 -14 39
5 32 24 -3 7 -3 13 0 13 9 0 48 -92 42 -98 -2 -3 5 -20 16 -39 31 -50 18 -50
-14 0 -15 23 -25 47 -22 55 3 9 0 10 -14 2 -14 -7 -21 -6 -24 3 -4 9 -6 9 -6
0 -2 -24 -17 -13 -29 21 -15 42 -37 62 -48 45 -4 -8 -3 -9 4 -5 8 5 10 1 5
-11 -5 -14 -10 -10 -25 22 -9 22 -18 46 -18 53 0 6 -6 12 -13 12 -16 0 -77 62
-77 78 0 13 -13 16 -23 6 -4 -4 1 -14 11 -23 23 -20 62 -76 62 -88 0 -4 -7 1
-15 11 -8 11 -15 17 -15 13 0 -4 -21 14 -46 40 -46 48 -46 48 -30 13 l17 -35
-23 28 c-76 93 -120 129 -60 50 40 -54 17 -37 -31 21 -25 30 -47 53 -49 51 -3
-3 -15 7 -29 21 -19 20 -21 27 -10 33 10 7 4 13 -23 26 -20 9 -33 22 -29 28 4
6 1 7 -6 3 -7 -5 -21 0 -32 10 -10 9 -22 15 -25 12 -3 -3 12 -21 34 -39 42
-38 87 -97 79 -106 -3 -3 -36 24 -74 59 -37 34 -88 81 -113 102 -25 21 -37 36
-27 33 9 -4 17 -2 17 3 0 12 -41 35 -57 32 -6 -1 -14 2 -18 8 -3 5 1 10 9 10
14 0 14 3 -1 19 -28 29 -53 64 -53 73 0 20 -18 5 -30 -27 -8 -19 -17 -35 -20
-35 -3 0 -16 17 -27 38 -15 26 -19 42 -12 54 8 14 6 15 -16 5 -13 -7 -20 -13
-15 -15 13 -5 13 -32 1 -32 -10 0 -23 33 -25 63 -2 31 -21 19 -31 -20 -5 -21
-12 -42 -15 -48 -7 -14 -5 -122 3 -175 l7 -45 -15 50 c-8 28 -15 67 -15 88 0
30 -4 37 -20 37 -11 0 -20 4 -20 9 0 5 6 8 13 7 14 -1 17 6 16 32 0 14 -2 14
-9 -3 -8 -18 -9 -17 -9 8 -1 24 -3 26 -20 15 -10 -6 -17 -18 -14 -25 4 -9 0
-11 -11 -7 -12 5 -19 0 -23 -15 -3 -13 -13 -21 -27 -21 -26 0 -66 -39 -66 -64
0 -9 -3 -15 -7 -13 -9 6 -34 -19 -27 -26 2 -2 -3 -10 -13 -18 -13 -11 -15 -11
-9 -1 7 11 4 11 -12 1 -12 -7 -24 -10 -28 -6 -9 9 16 38 27 31 5 -3 8 0 7 8
-2 7 4 12 12 10 8 -2 12 0 7 4 -4 4 16 29 44 56 54 50 51 56 -16 33 l-40 -14
24 20 c13 10 35 20 50 20 22 2 23 2 4 6 -61 12 -204 -91 -237 -171 -9 -21 -16
-40 -16 -42 0 -2 15 -8 33 -13 32 -8 31 -9 -13 -9 -24 0 -46 -5 -48 -11 -2 -6
-10 -11 -17 -11 -18 0 -26 -39 -13 -63 9 -18 8 -19 -17 -13 -19 5 -31 3 -36
-6 -5 -7 -9 -8 -9 -3 0 15 -113 12 -118 -3 -3 -9 4 -11 25 -6 23 5 26 4 16 -7
-7 -7 -13 -21 -13 -32 0 -10 -5 -15 -11 -12 -6 4 -8 10 -5 13 7 6 -13 32 -25
32 -5 0 -15 -12 -23 -27 -20 -37 -95 -117 -103 -110 -3 3 2 13 11 22 9 9 16
23 16 31 0 8 5 14 10 14 6 0 10 11 10 25 0 15 -6 25 -15 25 -17 0 -77 -99 -71
-116 3 -7 -1 -29 -9 -49 -9 -28 -10 -48 -3 -74 7 -25 7 -36 -1 -39 -6 -2 -11
-16 -11 -30 l0 -27 -18 28 c-10 15 -23 24 -27 20 -5 -5 -4 -1 3 8 17 23 29
125 14 115 -7 -4 -12 -14 -12 -23 0 -13 -3 -13 -15 -3 -14 12 -20 7 -16 -14 1
-4 -6 -15 -16 -23 -13 -10 -15 -16 -5 -19 14 -7 16 -60 2 -69 -6 -4 -10 7 -10
26 0 31 -1 32 -15 13 -8 -10 -15 -28 -16 -39 -1 -17 -2 -17 -6 -2 -5 18 -23
24 -23 7 0 -20 -20 -9 -35 19 -30 60 -15 209 29 276 9 14 29 31 45 40 27 13
32 13 60 -3 17 -9 32 -24 35 -32 2 -8 4 -3 5 13 1 29 5 30 66 29 22 -1 34 1
28 4 -18 8 -16 27 1 21 8 -3 20 1 26 9 7 8 18 14 25 14 7 0 16 11 19 25 4 14
11 25 16 25 6 0 10 10 10 21 0 17 3 19 13 10 11 -8 19 -5 37 14 25 26 21 32
-10 15 -13 -7 -19 -6 -24 6 -4 9 2 18 17 23 12 5 33 21 47 36 36 39 88 61 150
64 53 2 150 36 150 53 0 4 8 8 18 8 10 0 34 17 52 38 28 30 35 34 38 20 5 -25
19 -22 37 5 17 26 55 47 86 47 17 0 18 -3 9 -20 -9 -16 -8 -18 5 -14 8 4 15 9
15 13 0 4 12 22 26 39 29 35 77 44 88 17 3 -8 17 -15 30 -15 21 0 27 7 37 39
14 48 25 53 108 56 42 1 68 6 75 16 48 62 246 130 246 85 0 -8 25 -35 55 -61
30 -27 55 -54 55 -61 0 -8 4 -14 9 -14 10 0 21 39 26 93 4 40 35 99 70 132 55
53 113 94 140 100 17 4 49 15 72 26 24 10 46 19 50 19 5 0 22 9 38 20 l30 20
-386 -1 c-373 -1 -386 -2 -382 -20 4 -16 0 -19 -26 -19 -17 0 -31 5 -31 10 0
16 -27 12 -46 -7 -11 -11 -13 -18 -5 -21 15 -5 14 -22 -1 -22 -7 0 -33 -18
-57 -40 -38 -34 -46 -37 -67 -28 -13 6 -24 15 -24 20 0 18 -53 3 -56 -15 -6
-41 -72 -80 -98 -58 -10 8 -16 9 -21 1 -3 -5 -17 -10 -31 -10 -13 0 -24 -5
-24 -11 0 -5 -5 -7 -11 -4 -6 4 -16 -1 -23 -10 -7 -9 -27 -18 -46 -19 -21 -1
-37 -9 -44 -21 -26 -45 -86 -84 -86 -56 0 10 -79 2 -95 -9 -24 -18 -144 -60
-172 -60 -19 0 -52 -14 -83 -35 -28 -19 -73 -41 -99 -49 -26 -8 -65 -23 -87
-34 -157 -79 -194 -95 -229 -100 -22 -3 -57 -16 -77 -29 -21 -12 -42 -23 -47
-23 -5 0 -39 -13 -75 -30 -95 -42 -122 -45 -197 -20 -35 11 -73 25 -84 30 -11
5 -81 33 -155 63 -277 113 -498 205 -617 258 -23 11 -44 19 -47 19 -13 0 -530
237 -668 306 -48 24 -92 44 -98 44 -6 0 -10 -30 -10 -72z m5710 -81 c30 -49
35 -156 12 -277 -11 -57 -18 -110 -15 -117 8 -20 -6 -65 -18 -57 -6 3 -10 0
-8 -7 4 -34 -1 -41 -26 -35 -33 8 -35 -21 -2 -33 12 -5 31 -19 42 -31 18 -20
20 -34 17 -123 -2 -78 -7 -108 -21 -131 -18 -28 -18 -30 3 -75 20 -44 21 -59
19 -307 -2 -143 -8 -289 -14 -325 -13 -70 -15 -135 -11 -279 2 -52 -2 -151 -8
-220 -6 -69 -11 -136 -11 -150 4 -91 11 -203 16 -250 5 -48 -4 -234 -20 -394
-6 -61 -14 -71 -75 -91 -27 -9 -54 -23 -60 -31 -7 -7 -19 -14 -26 -14 -8 0
-15 -6 -16 -12 0 -7 -2 -17 -3 -23 -2 -5 -3 -16 -4 -23 -1 -10 -10 -12 -32 -7
-17 4 -29 3 -26 -2 3 -4 -23 -10 -58 -11 -69 -3 -110 11 -154 54 -24 24 -24
24 -55 6 -20 -12 -75 -83 -153 -198 -161 -237 -161 -236 -180 -362 -18 -123
-43 -200 -82 -245 -15 -18 -33 -45 -40 -62 l-14 -30 -6 25 c-5 17 -9 21 -15
12 -4 -6 -12 -12 -18 -12 -6 0 -9 3 -5 6 3 3 2 17 -3 30 -5 13 -6 24 -1 24 9
0 2 48 -8 55 -7 4 19 151 30 170 5 8 19 54 23 75 1 3 5 10 9 17 4 6 3 14 -3
18 -5 3 -10 22 -10 41 0 35 -19 74 -52 107 -25 25 -26 22 -13 -30 9 -34 10
-52 2 -61 -8 -10 -7 -16 4 -23 9 -6 10 -12 4 -16 -6 -5 -11 -19 -10 -33 0 -14
-6 -37 -12 -52 -7 -15 -13 -45 -13 -68 0 -22 -4 -40 -10 -40 -5 0 -10 5 -10
10 0 6 -5 10 -12 10 -6 0 -4 -7 5 -18 18 -20 23 -47 7 -37 -16 10 -12 -7 8
-28 16 -19 16 -19 -3 -15 -15 2 -23 -5 -32 -31 -6 -19 -9 -47 -6 -61 3 -15 0
-31 -6 -34 -6 -4 -11 0 -11 10 0 13 -3 14 -15 4 -13 -11 -14 -8 -9 19 6 27 4
31 -15 31 -11 0 -21 4 -21 10 0 23 -36 90 -48 90 -9 0 -11 -7 -7 -20 3 -11 2
-20 -3 -20 -5 0 -14 18 -21 40 -8 27 -16 37 -26 34 -9 -4 -17 6 -24 33 -6 21
-11 44 -11 51 0 20 -22 14 -52 -15 -22 -21 -28 -23 -28 -10 0 9 5 17 10 17 6
0 10 9 10 20 0 11 6 20 13 21 7 0 6 3 -3 6 -8 3 -27 14 -42 25 -26 18 -55 17
-43 -2 3 -5 0 -12 -6 -15 -6 -4 -13 2 -16 14 -4 16 -11 19 -32 15 -22 -5 -29
-1 -41 21 l-14 27 -18 -22 c-16 -20 -23 -19 -19 3 1 4 -10 12 -23 16 -13 5
-32 21 -44 35 -11 14 -37 31 -58 38 -21 7 -38 18 -37 23 2 14 -25 27 -39 19
-7 -4 -8 -3 -4 4 4 7 1 12 -9 12 -9 0 -13 5 -10 10 3 6 -4 10 -15 10 -14 0
-24 8 -27 21 -4 12 -17 22 -34 26 -30 6 -38 18 -16 26 6 3 3 6 -9 6 -11 1 -39
17 -63 37 -38 33 -111 62 -111 44 0 -4 8 -18 18 -31 65 -90 106 -188 75 -182
-7 2 -13 -2 -13 -8 0 -8 -4 -8 -13 0 -8 6 -34 9 -62 6 -35 -4 -53 -1 -65 10
-24 22 -194 24 -218 2 -31 -27 -83 -38 -181 -37 -26 0 -48 -5 -52 -12 -7 -10
-11 -10 -21 0 -13 13 -52 17 -45 5 3 -5 -7 -8 -21 -9 -15 0 -36 -4 -46 -9 -15
-7 -18 -5 -14 6 4 11 -1 14 -26 11 -17 -2 -43 1 -58 7 -37 14 -37 51 2 133 34
71 39 103 14 94 -9 -3 -25 -6 -36 -6 -13 0 -18 -5 -15 -14 5 -12 -12 -23 -48
-30 -37 -7 -64 -19 -60 -26 3 -5 -4 -11 -15 -15 -11 -3 -20 -11 -20 -16 0 -5
-10 -9 -22 -9 -19 0 -20 -2 -8 -10 12 -7 8 -10 -15 -10 -30 0 -62 -17 -97 -52
-10 -10 -23 -18 -28 -18 -10 0 -19 -7 -67 -50 -13 -11 -23 -17 -23 -14 0 17
-29 -21 -35 -44 -3 -15 -16 -32 -28 -38 -12 -5 -21 -16 -19 -24 3 -12 1 -13
-9 -3 -18 18 -29 16 -29 -6 0 -10 -7 -22 -15 -25 -9 -3 -15 -11 -14 -18 3 -29
-2 -40 -16 -34 -8 3 -15 1 -15 -4 0 -6 -9 -10 -20 -10 -12 0 -20 -7 -20 -16 0
-10 6 -14 15 -11 27 11 25 -10 -3 -23 -20 -9 -23 -14 -12 -18 8 -3 20 -12 26
-20 7 -9 18 -13 29 -9 12 5 16 3 12 -7 -3 -7 0 -19 6 -26 9 -10 9 -14 -2 -17
-10 -4 -10 -7 -2 -13 9 -5 9 -13 0 -33 -7 -15 -16 -24 -21 -21 -5 3 -6 -5 -3
-18 4 -17 1 -29 -11 -39 -11 -9 -15 -9 -10 -2 4 7 3 20 -2 29 -8 14 -10 12
-16 -10 -3 -14 -11 -26 -17 -26 -6 0 -8 9 -4 19 8 26 -11 36 -24 14 -6 -10
-11 -14 -11 -9 0 6 10 21 23 35 15 18 16 21 3 11 -18 -14 -19 -13 -14 19 4 31
4 32 -9 16 -7 -11 -13 -28 -14 -39 -1 -18 -2 -18 -9 4 -4 14 -8 19 -9 13 -1
-7 -6 -13 -11 -13 -6 0 -4 13 5 31 9 17 14 36 12 42 -3 7 -9 0 -15 -15 -15
-36 -30 -43 -24 -11 4 19 2 24 -8 18 -8 -5 -10 -20 -6 -47 9 -57 -11 -45 -33
20 -21 62 -29 71 -41 52 -19 -29 -13 351 6 425 4 15 3 16 -4 5 -5 -8 -15 -44
-22 -80 -16 -78 -20 -86 -32 -69 -6 9 -7 -22 -2 -86 4 -55 8 -157 9 -226 1
-69 5 -130 8 -136 34 -56 -98 -47 -137 9 -19 26 -21 85 -5 125 18 45 34 78 39
83 3 3 17 19 32 37 l26 32 -17 78 c-10 43 -20 78 -24 78 -13 0 -76 -55 -87
-75 -8 -15 -6 -24 9 -39 37 -37 42 -55 26 -108 -18 -61 -43 -85 -89 -86 -47
-1 -59 13 -66 76 -5 50 -6 52 -40 57 -20 4 -40 9 -46 12 -6 4 -10 -18 -11 -62
-1 -38 2 -69 5 -68 27 7 70 -17 86 -46 22 -41 24 -152 3 -173 -29 -29 -54 -23
-96 22 -46 50 -56 79 -46 131 6 35 5 36 -17 29 -13 -4 -41 -9 -63 -12 -35 -4
-47 1 -103 43 -34 25 -65 45 -67 42 -3 -2 6 -28 20 -57 35 -71 42 -133 21
-166 -40 -61 -114 -54 -142 14 -13 31 -44 165 -44 191 0 21 46 50 77 50 18 0
33 4 33 9 0 5 -31 43 -69 85 -59 65 -71 85 -80 129 -19 99 -51 332 -51 366 0
36 32 81 56 81 24 0 23 17 -1 63 -32 58 -31 87 0 117 l25 24 148 -13 c205 -17
505 -49 580 -61 52 -9 66 -8 85 5 12 8 33 15 47 15 29 0 28 -4 31 120 1 30 3
47 6 38 10 -37 20 -15 29 65 6 45 7 96 3 112 -5 23 -7 14 -8 -35 -1 -36 -5
-60 -9 -54 -4 7 -5 40 -4 74 3 46 7 60 17 56 18 -7 27 5 14 20 -7 9 -7 19 2
36 7 13 12 40 10 61 -1 22 3 45 9 52 8 9 7 14 -4 18 -9 4 -17 -1 -20 -11 -9
-28 4 159 14 208 5 25 14 77 21 115 7 39 18 84 25 102 19 44 26 140 25 343 -1
96 2 188 7 203 7 28 72 79 72 58 0 -6 5 -11 11 -11 8 0 8 4 -1 15 -12 15 -5
39 10 30 5 -3 13 2 18 11 8 14 11 11 20 -15 10 -29 0 -56 -11 -29 -3 8 -6 5
-6 -5 -1 -11 8 -30 19 -44 25 -32 29 -63 5 -39 -8 8 -20 27 -25 41 -9 23 -13
25 -25 15 -14 -11 -11 -17 20 -45 39 -37 45 -55 15 -55 -22 0 -18 -21 9 -54
15 -18 15 -19 0 -14 -20 8 -46 -7 -30 -16 6 -4 11 -2 11 4 0 6 4 9 9 6 10 -7
7 -47 -7 -72 -5 -11 -7 -34 -4 -53 4 -29 2 -33 -12 -28 -25 10 -49 -37 -53
-104 -3 -60 -19 -116 -29 -106 -3 3 -1 22 6 42 17 53 5 54 -15 1 -18 -47 -26
-143 -12 -148 9 -3 27 41 49 112 5 19 14 40 18 45 4 6 13 28 20 50 6 22 20 58
30 80 10 22 27 62 39 89 25 58 115 172 142 179 10 3 19 12 19 20 0 9 13 18 30
22 17 4 28 11 24 16 -3 5 5 9 18 9 13 0 34 9 48 20 14 11 31 20 38 20 7 0 10
5 7 10 -4 7 3 8 21 4 19 -5 25 -4 20 5 -4 6 -2 11 4 11 6 0 9 4 6 8 -3 5 8 9
24 10 38 1 72 20 63 35 -4 7 1 6 11 -2 20 -17 56 -22 56 -8 0 5 7 7 15 3 8 -3
15 -2 15 3 0 17 46 29 66 18 10 -7 70 -12 134 -13 63 -1 141 -5 173 -9 32 -4
64 -4 72 -1 9 3 19 6 23 7 4 0 13 6 21 12 12 9 13 9 7 0 -4 -8 -1 -13 8 -13 9
0 16 5 16 11 0 6 9 8 20 4 11 -3 20 -2 20 3 0 11 18 11 35 1 6 -4 19 -5 29 -3
23 3 261 -40 297 -55 65 -26 132 -42 141 -33 7 7 17 3 31 -11 15 -15 22 -17
25 -8 2 7 7 9 11 5 9 -13 94 -54 111 -54 8 0 26 -10 40 -21 27 -22 154 -108
184 -124 9 -5 17 -14 17 -20 0 -5 10 -15 22 -22 12 -6 44 -54 72 -107 28 -53
53 -96 58 -96 4 0 7 -8 7 -18 0 -10 3 -22 8 -26 4 -4 7 -11 8 -14 0 -4 3 -14
6 -22 3 -8 14 -42 23 -75 10 -33 21 -64 25 -70 14 -19 21 -73 11 -79 -7 -4 -2
-26 14 -59 37 -81 39 -89 42 -142 3 -83 18 -169 33 -193 13 -19 13 -24 1 -31
-9 -6 -10 -11 -2 -15 6 -4 11 -20 11 -35 0 -15 6 -33 12 -39 10 -10 10 -17 0
-33 -14 -22 -7 -43 13 -35 14 5 25 -14 25 -45 0 -10 -7 -19 -15 -19 -9 0 -12
6 -8 17 4 10 2 14 -4 10 -13 -8 -10 -48 8 -106 12 -41 14 -43 20 -20 6 21 7
21 8 -9 1 -20 -3 -31 -9 -27 -5 3 -10 1 -10 -4 0 -6 4 -11 8 -11 5 0 8 -30 7
-66 l-3 -66 40 5 c22 3 45 10 51 16 6 6 13 107 17 248 l7 238 -23 28 c-13 16
-46 46 -73 67 l-49 39 12 58 c13 63 29 75 62 46 27 -25 122 -140 164 -201 19
-28 47 -58 62 -66 25 -15 40 -38 111 -166 16 -30 56 -83 88 -117 33 -34 59
-65 59 -71 0 -5 11 -22 25 -38 14 -16 25 -32 25 -36 0 -13 58 -38 89 -38 26 0
31 4 36 33 13 69 20 270 10 283 -5 7 -26 20 -46 28 -24 10 -60 44 -104 98 -38
46 -78 92 -89 103 -12 11 -41 45 -64 77 -24 31 -70 87 -104 125 -106 118 -122
167 -73 213 31 29 53 29 250 -5 153 -26 211 -30 232 -17 17 10 31 112 33 230
1 88 -2 105 -19 123 -11 12 -21 41 -24 67 -3 26 -9 62 -12 80 -6 26 -2 40 19
70 l26 38 4 347 c3 306 2 350 -13 379 -11 22 -24 34 -41 36 -22 2 -28 -4 -48
-55 -13 -35 -43 -81 -76 -118 -32 -35 -59 -76 -66 -100 -13 -46 -56 -121 -140
-250 -32 -49 -70 -112 -84 -140 -14 -27 -30 -57 -35 -65 -5 -8 -14 -29 -20
-45 -7 -17 -27 -48 -45 -68 -19 -21 -41 -58 -51 -83 -9 -25 -47 -93 -83 -152
-72 -118 -106 -195 -97 -222 3 -10 1 -21 -5 -25 -17 -11 -50 5 -50 25 0 10 -4
22 -10 25 -5 3 -10 14 -10 24 0 10 -9 28 -20 41 -23 27 -27 62 -6 54 7 -3 16
2 19 10 4 9 14 16 24 16 12 0 45 42 95 119 43 65 89 131 103 146 13 16 27 41
30 55 4 14 29 59 56 100 27 41 62 100 79 132 16 31 41 73 55 94 14 21 39 66
56 100 16 35 51 84 79 111 38 38 51 59 60 98 15 68 50 124 106 170 45 37 46
39 41 84 -3 25 -12 69 -21 96 -52 175 -50 166 -32 199 9 17 26 60 39 96 12 36
27 72 32 80 14 21 69 50 95 50 12 0 48 14 79 30 58 31 132 50 165 42 10 -3 26
-18 36 -35z m-5200 -227 c-12 -8 -9 -10 12 -10 15 0 30 -5 34 -12 5 -8 -3 -9
-31 -5 -20 3 -40 9 -43 12 -7 7 17 25 33 25 6 0 3 -5 -5 -10z m187 -71 c29
-16 61 -29 72 -29 10 0 32 -7 47 -15 16 -8 37 -15 47 -15 9 0 17 -4 17 -10 0
-5 8 -10 18 -10 24 0 104 -42 110 -58 6 -18 -28 -15 -34 3 -4 8 -9 13 -13 10
-12 -7 -79 14 -96 31 -8 8 -19 13 -25 9 -5 -3 -17 2 -28 13 -10 10 -45 24 -77
32 -36 8 -67 22 -77 34 -10 12 -18 15 -18 9 0 -9 -7 -10 -22 -4 -13 5 -31 12
-41 15 -10 3 -15 11 -12 16 10 16 74 1 132 -31z m4422 -42 c14 -18 -10 -47
-59 -72 -19 -10 -51 -30 -70 -46 -22 -17 -66 -35 -119 -48 -95 -24 -124 -26
-152 -11 -54 29 24 108 124 125 46 8 159 43 177 55 22 14 86 12 99 -3z m-1688
-165 c-5 -2 -9 -9 -7 -15 1 -7 1 -9 -1 -4 -3 4 -13 7 -24 7 -22 0 -23 4 -7 30
12 18 13 18 31 2 10 -9 14 -18 8 -20z m-304 6 c-3 -8 -6 -5 -6 6 -1 11 2 17 5
13 3 -3 4 -12 1 -19z m1540 -9 c9 -9 8 -19 -2 -39 -17 -33 -24 -36 -98 -45
-98 -12 -132 9 -84 52 39 37 159 57 184 32z m-3422 -29 c22 -11 52 -20 67 -20
41 0 167 -50 178 -71 6 -9 6 -27 2 -38 -8 -23 -97 -91 -119 -91 -7 0 -13 -4
-13 -9 0 -5 -16 -9 -35 -9 -20 0 -46 -7 -60 -16 -26 -17 -82 -21 -103 -7 -21
13 -26 129 -7 157 8 13 15 37 15 54 0 33 15 70 28 70 4 0 25 -9 47 -20z m1725
-3 c0 -2 -26 -25 -57 -52 -58 -50 -56 -38 4 23 27 27 53 41 53 29z m-100 -11
c0 -3 -4 -8 -10 -11 -5 -3 -10 -1 -10 4 0 6 5 11 10 11 6 0 10 -2 10 -4z m187
-26 c-9 -23 -13 -27 -20 -15 -5 9 -3 21 5 30 21 23 27 17 15 -15z m84 -21
c-12 -19 -21 -30 -21 -26 0 12 33 67 38 63 1 -2 -6 -19 -17 -37z m206 9 c-3
-8 -6 -5 -6 6 -1 11 2 17 5 13 3 -3 4 -12 1 -19z m88 -73 c-3 -26 -9 -44 -12
-41 -3 3 -2 26 2 51 3 26 9 44 12 41 3 -3 2 -26 -2 -51z m-88 3 c-3 -7 -5 -2
-5 12 0 14 2 19 5 13 2 -7 2 -19 0 -25z m-432 12 c-3 -5 -10 -10 -16 -10 -5 0
-9 5 -9 10 0 6 7 10 16 10 8 0 12 -4 9 -10z m603 -75 c-3 -3 -9 2 -12 12 -6
14 -5 15 5 6 7 -7 10 -15 7 -18z m-738 -36 c0 -5 -4 -9 -8 -9 -5 0 -9 7 -9 15
0 8 4 12 9 9 4 -3 8 -9 8 -15z m5 -29 c3 -5 1 -10 -4 -10 -6 0 -11 5 -11 10 0
6 2 10 4 10 3 0 8 -4 11 -10z m-135 -17 c0 -5 -16 -28 -35 -52 -21 -26 -34
-37 -32 -25 8 40 26 72 44 77 10 3 19 5 21 6 1 0 2 -2 2 -6z m1145 -23 c10
-11 16 -20 13 -20 -3 0 -13 9 -23 20 -10 11 -16 20 -13 20 3 0 13 -9 23 -20z
m-1255 -9 c0 -6 -4 -12 -9 -16 -6 -3 -6 -18 0 -38 12 -41 11 -47 -2 -23 -9 15
-13 16 -21 5 -7 -10 -8 -9 -4 6 3 11 8 32 12 48 6 25 24 39 24 18z m-506 -110
c9 -31 7 -35 -19 -55 -16 -11 -36 -29 -44 -38 -9 -10 -24 -18 -34 -18 -10 0
-27 -5 -38 -10 -28 -15 -45 25 -32 76 12 52 61 86 117 82 36 -3 41 -6 50 -37z
m439 14 c-7 -21 -13 -19 -13 6 0 11 4 18 10 14 5 -3 7 -12 3 -20z m-66 -47
c-3 -8 -6 -5 -6 6 -1 11 2 17 5 13 3 -3 4 -12 1 -19z m-677 -41 c39 -31 75
-122 85 -214 4 -37 3 -63 -2 -63 -5 0 -19 -21 -31 -47 -25 -55 -44 -69 -119
-89 -71 -18 -86 -18 -115 5 l-24 20 -20 -27 c-38 -53 -80 -88 -122 -102 -60
-19 -75 -3 -84 98 -23 228 -23 209 10 240 16 15 53 34 83 41 l53 14 27 -32
c17 -21 29 -50 33 -81 5 -34 11 -48 19 -44 20 7 48 94 55 170 6 56 11 70 33
86 21 16 64 32 99 37 3 0 12 -5 20 -12z m680 3 c0 -5 -8 -10 -17 -10 -15 0
-16 2 -3 10 19 12 20 12 20 0z m-1910 -110 c-12 -23 -60 -28 -60 -7 0 20 10
27 42 27 26 0 28 -2 18 -20z m1480 -80 c14 -27 4 -57 -20 -65 -30 -9 -40 2
-40 46 0 35 3 39 25 39 14 0 29 -8 35 -20z m2324 -15 l17 -30 -20 24 c-12 13
-21 28 -21 34 0 12 0 11 24 -28z m-2394 -6 c0 -5 -4 -9 -10 -9 -5 0 -7 -7 -4
-15 4 -11 -1 -15 -17 -15 -19 0 -21 -2 -9 -10 13 -8 12 -10 -4 -10 -14 0 -17
5 -12 23 4 12 9 29 11 37 2 8 4 16 4 17 3 5 41 -11 41 -18z m2474 -101 c20
-39 20 -37 -4 -31 -11 3 -20 10 -20 17 0 6 -3 22 -7 35 -9 33 11 20 31 -21z
m844 -250 c132 -18 125 -48 -23 -97 -125 -40 -200 -49 -225 -26 -24 22 -25 48
-4 81 36 54 95 64 252 42z m1170 -280 c41 -40 51 -56 46 -72 -9 -27 -24 -37
-49 -31 -11 2 -30 5 -43 5 -53 0 -90 78 -62 131 18 33 52 22 108 -33z m-376
-280 c21 -6 48 -22 60 -35 23 -25 23 -26 22 -301 -1 -320 2 -310 -108 -438
-79 -93 -124 -115 -160 -78 -14 13 -16 53 -15 292 0 152 4 337 8 411 6 125 8
134 31 153 20 16 33 19 75 13 27 -3 67 -11 87 -17z m-4043 -262 c-9 -8 -10 -5
-5 14 3 14 7 34 7 45 1 11 4 5 6 -14 3 -19 -1 -39 -8 -45z m2678 -138 c-3 -7
-5 -2 -5 12 0 14 2 19 5 13 2 -7 2 -19 0 -25z m23 -183 c0 -8 -4 -15 -10 -15
-5 0 -10 7 -10 15 0 8 5 15 10 15 6 0 10 -7 10 -15z m603 -342 c20 -38 30
-117 22 -164 -5 -27 -20 -54 -44 -80 -37 -38 -39 -39 -108 -39 -82 0 -99 12
-90 63 10 66 156 247 199 247 4 0 14 -12 21 -27z m-4828 -56 c22 -6 60 -24 85
-39 25 -15 78 -43 118 -62 79 -38 93 -58 84 -116 -5 -38 -17 -49 -107 -98 -33
-19 -68 -41 -78 -50 -18 -16 -53 -119 -44 -129 3 -3 57 47 119 111 103 105
117 116 150 116 78 0 167 -109 212 -260 36 -121 44 -387 14 -472 -14 -40 -168
-212 -209 -233 -39 -21 -125 -22 -146 -3 -10 9 -31 20 -46 23 -29 8 -79 52
-110 98 -10 15 -27 27 -39 27 -25 0 -130 63 -165 99 -53 56 -105 132 -113 166
-6 29 -3 45 16 81 28 53 30 71 7 96 -15 17 -16 29 -4 131 13 113 25 229 40
389 9 94 27 134 63 141 32 5 106 -2 153 -16z m5623 -106 c-3 -34 -5 -36 -40
-39 l-38 -3 0 40 c0 43 8 49 52 43 27 -4 29 -7 26 -41z m-2922 -136 c-23 -17
-36 -19 -36 -6 0 11 18 19 40 20 11 0 10 -3 -4 -14z m2196 -27 c33 -16 68 -74
75 -124 3 -27 13 -55 22 -62 9 -8 10 -11 4 -7 -10 5 -13 -8 -13 -50 0 -48 -4
-59 -26 -79 l-27 -22 45 -45 c51 -51 90 -134 83 -176 -3 -15 -7 -57 -9 -93 -6
-91 -13 -107 -70 -173 -57 -65 -91 -87 -135 -87 -29 0 -30 -1 -19 -24 14 -31
33 -39 48 -20 7 8 16 14 21 14 14 0 31 -39 22 -53 -10 -16 -12 -27 -28 -137
-18 -120 -18 -155 -2 -172 7 -7 14 -29 16 -48 5 -55 38 -63 59 -14 7 13 19 24
27 24 9 0 29 7 46 15 28 15 30 15 38 -7 4 -13 4 -36 0 -53 -20 -69 -2 -122 37
-108 6 2 19 -6 29 -17 17 -19 18 -27 6 -110 -7 -49 -10 -94 -6 -99 8 -13 -23
-119 -37 -127 -6 -4 -23 -7 -37 -8 -37 -1 -33 -28 6 -46 20 -9 37 -26 43 -45
16 -47 69 -77 134 -76 48 0 56 -3 62 -21 10 -32 -21 -51 -66 -42 -60 12 -115
7 -151 -15 -19 -12 -27 -21 -19 -21 9 0 7 -5 -8 -16 -24 -17 -46 -10 -38 12 3
8 1 14 -4 14 -6 0 -10 -4 -10 -10 0 -20 -19 -10 -23 13 l-4 22 -8 -22 c-4 -13
-13 -19 -21 -16 -7 3 -13 8 -12 11 1 4 -3 17 -10 29 -8 15 -18 20 -29 16 -11
-4 -14 -3 -9 6 9 14 46 4 62 -17 8 -11 13 -12 18 -4 4 7 2 12 -5 12 -7 0 -10
3 -6 6 10 11 -17 31 -35 26 -11 -2 -18 1 -18 9 0 8 -8 2 -18 -14 -10 -15 -22
-24 -26 -20 -4 5 -11 8 -15 8 -8 0 -41 31 -41 38 0 2 11 5 24 5 17 0 23 -5 19
-14 -3 -9 2 -14 12 -14 14 0 16 6 12 30 -6 29 5 41 18 20 10 -16 45 8 45 30 0
11 -4 28 -9 38 -61 110 -68 154 -30 188 25 23 24 46 -5 89 -14 20 -30 53 -37
73 -19 60 -36 74 -83 67 -35 -6 -44 -3 -62 18 -14 15 -19 29 -14 38 5 7 6 17
3 22 -3 4 3 7 13 5 27 -4 30 28 4 35 -28 7 -50 -1 -50 -20 0 -8 -8 -13 -17
-12 -32 3 -44 -1 -38 -11 3 -5 -2 -11 -12 -11 -10 -1 -29 -3 -43 -5 -56 -8
-81 -7 -92 4 -8 8 -8 12 -1 12 5 0 8 11 6 24 -9 47 48 111 75 84 5 -5 21 -6
34 -3 22 6 25 10 19 33 -9 33 -62 52 -92 34 -15 -10 -17 -9 -12 4 3 8 2 14 -3
13 -5 -1 -12 0 -16 1 -5 1 -14 3 -20 4 -7 1 -12 8 -10 15 1 7 -6 15 -16 18
-36 9 -61 83 -28 83 17 0 49 57 36 65 -5 3 -19 1 -31 -5 -29 -16 -63 -5 -84
27 -19 29 -30 166 -26 328 1 44 -2 93 -8 108 -8 20 -7 41 0 75 19 79 27 91 79
119 27 16 50 34 50 41 0 6 -9 29 -20 49 -38 71 -24 139 47 228 46 58 72 69
203 85 47 6 105 14 130 19 46 8 82 5 112 -11z m-2582 -47 c0 -5 14 -11 30 -14
27 -6 43 -27 20 -27 -5 0 -10 6 -10 13 0 8 -3 8 -9 -2 -8 -12 -12 -12 -25 -2
-8 7 -24 10 -36 6 -11 -4 -20 -2 -20 4 0 6 7 11 15 11 8 0 15 5 15 10 0 6 5
10 10 10 6 0 10 -4 10 -9z m10 -61 c0 -5 -10 -10 -22 -9 -22 0 -22 1 -3 9 11
5 21 9 23 9 1 1 2 -3 2 -9z m-89 -33 c-10 -9 -11 -8 -5 6 3 10 9 15 12 12 3
-3 0 -11 -7 -18z m1939 9 c0 -8 -4 -18 -10 -21 -5 -3 -10 3 -10 14 0 12 5 21
10 21 6 0 10 -6 10 -14z m-1842 -8 c-2 -6 -10 -13 -16 -14 -7 -1 -8 0 -2 3 5
2 8 9 4 14 -3 5 0 9 6 9 7 0 10 -5 8 -12z m2818 -61 c11 -49 7 -198 -6 -211
-26 -25 -50 53 -54 172 -3 77 44 107 60 39z m-1309 -1 c0 -8 -6 -12 -14 -9 -7
3 -10 9 -7 14 8 14 21 11 21 -5z m140 -146 c-1 -12 -5 -16 -10 -11 -5 5 -6 14
-3 20 11 16 15 13 13 -9z m-2477 -67 c0 -70 -5 -66 -13 10 -3 34 -2 55 4 52 5
-4 9 -31 9 -62z m3642 -78 c6 -28 -6 -34 -16 -9 -5 14 0 34 8 34 2 0 6 -11 8
-25z m-3483 -37 c1 -5 -3 -8 -7 -8 -4 0 -8 12 -9 28 -1 23 -1 24 7 7 5 -11 9
-23 9 -27z m721 12 c11 -11 20 -16 20 -11 0 18 34 21 59 4 14 -10 49 -23 76
-31 28 -7 67 -21 87 -31 25 -12 39 -15 42 -7 2 6 5 2 5 -9 1 -40 -11 -46 -75
-34 -38 6 -65 18 -76 31 -10 11 -18 15 -18 9 0 -16 -50 -13 -84 4 -15 8 -41
15 -57 15 -27 0 -29 3 -29 40 0 46 17 53 50 20z m2760 -49 c-1 -25 -1 -25 -15
-7 -19 25 -19 33 0 33 10 0 15 -10 15 -26z m-2300 -26 c0 -5 5 -3 10 5 8 12
10 12 10 -5 0 -41 -15 -49 -92 -49 l-73 -1 -3 31 -3 30 76 0 c43 -1 75 -5 75
-11z m75 4 c-4 -6 2 -13 14 -16 11 -3 18 -9 15 -14 -7 -13 -38 -11 -51 2 -14
14 -6 39 14 39 8 0 11 -5 8 -11z m-1607 -26 c33 -33 72 -92 72 -108 0 -9 5
-25 11 -36 5 -11 9 -38 7 -60 l-3 -40 -60 31 c-125 65 -168 150 -104 204 36
31 53 32 77 9z m872 -4 c0 -6 9 -9 20 -6 11 3 18 1 15 -3 -8 -12 11 -21 45
-22 19 -1 30 -6 30 -15 0 -8 4 -12 9 -9 5 3 27 -1 50 -9 26 -9 43 -10 47 -4 3
6 13 7 23 4 95 -39 183 -56 281 -56 99 0 274 16 292 27 4 3 8 2 8 -3 0 -22
-217 -73 -276 -66 -17 3 -31 -1 -36 -11 -9 -17 -111 -14 -133 4 -9 7 -21 7
-41 0 -22 -9 -29 -8 -36 4 -5 9 -15 13 -25 9 -12 -5 -14 -3 -8 7 6 10 4 11
-11 5 -10 -5 -32 -8 -49 -7 -28 1 -29 0 -11 -13 11 -8 27 -15 35 -15 32 0 44
-16 32 -39 -7 -12 -16 -19 -22 -16 -5 4 -9 4 -9 0 0 -3 10 -10 23 -16 l22 -10
-22 5 c-13 2 -26 0 -29 -6 -3 -5 -12 -7 -20 -4 -7 3 -16 1 -19 -5 -10 -15 -25
0 -18 19 6 16 5 16 -14 0 -33 -30 -71 -20 -41 10 7 7 9 12 6 12 -4 0 -14 -8
-24 -17 -17 -17 -17 -17 -12 2 4 16 0 21 -16 20 -30 0 -49 -14 -38 -28 5 -7 6
-21 1 -32 -11 -28 -11 -35 1 -35 6 0 10 5 10 11 0 11 25 39 35 39 3 0 3 -6 -2
-12 -10 -17 -13 -33 -17 -93 -5 -77 -16 -107 -35 -101 -9 4 -6 -3 8 -14 13
-11 22 -22 20 -24 -2 -1 -15 -11 -29 -20 l-25 -18 25 8 c23 6 24 6 10 -11 -8
-10 -14 -21 -14 -24 3 -14 -9 -31 -22 -31 -10 0 -13 7 -8 25 5 20 2 25 -20 31
-14 3 -26 10 -26 16 0 5 4 7 9 4 5 -4 17 -3 27 1 15 5 14 8 -7 16 -22 8 -22
10 -6 16 17 6 17 8 4 20 -14 11 -14 14 4 32 10 10 19 25 19 32 -1 6 -7 1 -14
-12 l-13 -23 -6 22 c-3 13 -1 32 5 43 7 13 7 26 0 41 -18 37 -21 55 -12 61 17
10 11 32 -10 38 -11 3 -18 1 -15 -3 3 -5 1 -11 -4 -14 -5 -3 -14 8 -20 24 -6
18 -6 30 0 30 5 0 9 -5 9 -12 0 -6 3 -8 7 -5 3 4 -1 15 -9 24 -8 10 -15 27
-15 37 0 16 6 13 29 -14 25 -31 28 -32 28 -12 0 11 -9 26 -20 32 -36 19 -17
110 24 110 19 0 33 23 17 28 -9 3 -9 7 0 18 14 17 29 18 29 3z m-1343 -46 c14
-21 18 -52 19 -157 1 -72 6 -167 11 -211 11 -92 3 -132 -31 -164 -49 -46 -111
7 -95 79 4 19 11 71 15 115 6 82 1 110 -40 207 -24 57 -20 82 20 122 44 44 77
47 101 9z m205 3 c39 -29 27 -116 -21 -153 -27 -21 -51 19 -51 83 0 43 4 56
22 68 27 19 28 19 50 2z m1811 -33 c-7 -2 -19 -2 -25 0 -7 3 -2 5 12 5 14 0
19 -2 13 -5z m-3094 -83 c30 0 104 -55 189 -140 65 -67 85 -94 98 -135 32
-101 -1 -164 -146 -277 -96 -75 -183 -124 -201 -112 -6 3 -8 31 -3 72 3 37 7
81 8 97 1 17 5 35 9 42 4 6 3 14 -3 18 -13 8 -13 55 0 55 6 0 7 71 5 186 -4
138 -2 191 7 202 8 9 14 10 16 3 2 -6 11 -11 21 -11z m3348 -38 c7 -4 8 -13 4
-20 -6 -10 -19 -11 -60 -3 -2 1 2 8 9 16 14 16 29 19 47 7z m-383 -17 c3 -9 0
-15 -9 -15 -16 0 -27 14 -18 24 10 10 21 7 27 -9z m307 -24 c-7 -5 -10 -14 -7
-20 8 -12 -6 -15 -17 -4 -9 8 12 33 27 33 6 0 5 -4 -3 -9z m-987 -27 c3 -8 2
-12 -4 -9 -6 3 -10 10 -10 16 0 14 7 11 14 -7z m1236 6 c0 -5 -2 -10 -4 -10
-3 0 -8 5 -11 10 -3 6 -1 10 4 10 6 0 11 -4 11 -10z m-2726 -27 c4 -5 13 -8
19 -8 6 0 21 -36 34 -80 13 -44 28 -92 32 -107 11 -33 3 -78 -14 -78 -15 0
-65 -56 -65 -72 0 -47 -101 -67 -140 -28 -11 11 -20 24 -20 29 0 5 -17 24 -38
42 -61 54 -77 83 -62 118 20 50 108 131 174 162 69 32 70 32 80 22z m1551 -3
c-4 -6 0 -22 9 -35 9 -13 16 -30 16 -37 0 -7 -9 2 -21 21 -18 30 -20 61 -4 61
4 0 3 -5 0 -10z m1147 3 c-6 -2 -10 -8 -8 -11 2 -4 -2 -12 -9 -19 -10 -10 -16
-9 -26 3 -10 12 -9 13 5 8 9 -4 16 -3 15 2 -3 18 1 24 19 23 10 0 12 -3 4 -6z
m-1170 -95 c-12 -12 -35 -1 -27 12 3 5 13 6 21 3 10 -4 12 -9 6 -15z m3 -28
c11 -17 -5 -32 -21 -19 -8 6 -14 15 -14 20 0 12 27 11 35 -1z m195 -14 c0 -8
-4 -18 -10 -21 -5 -3 -10 3 -10 14 0 12 5 21 10 21 6 0 10 -6 10 -14z m-170
-26 c0 -5 -5 -10 -11 -10 -5 0 -7 5 -4 10 3 6 8 10 11 10 2 0 4 -4 4 -10z
m1123 -2 c-4 -7 -8 -16 -8 -20 0 -14 -15 -21 -15 -7 0 8 5 20 12 27 16 16 21
15 11 0z m-988 -28 c-3 -5 -11 -10 -16 -10 -6 0 -7 5 -4 10 3 6 11 10 16 10 6
0 7 -4 4 -10z m-165 -10 c0 -5 -4 -10 -10 -10 -5 0 -10 5 -10 10 0 6 5 10 10
10 6 0 10 -4 10 -10z m40 -10 c0 -5 -4 -10 -10 -10 -5 0 -10 5 -10 10 0 6 5
10 10 10 6 0 10 -4 10 -10z m130 -46 c0 -8 -5 -12 -10 -9 -6 4 -8 11 -5 16 9
14 15 11 15 -7z m880 6 c0 -5 -2 -10 -4 -10 -3 0 -8 5 -11 10 -3 6 -1 10 4 10
6 0 11 -4 11 -10z m-825 -32 c-19 -11 -30 -5 -21 11 4 6 14 7 22 4 15 -5 14
-7 -1 -15z m-185 2 c0 -5 -2 -10 -4 -10 -3 0 -8 5 -11 10 -3 6 -1 10 4 10 6 0
11 -4 11 -10z m2921 -7 c0 -5 2 -16 4 -25 5 -28 -25 -30 -35 -2 -6 14 -10 27
-10 30 0 7 40 4 41 -3z m-4708 -54 c76 -44 97 -62 116 -96 17 -33 14 -88 -6
-105 -31 -26 -149 -40 -162 -19 -3 5 -44 12 -91 16 -47 4 -95 14 -107 21 -29
18 -30 62 -3 92 11 12 20 26 20 32 0 5 6 10 13 10 7 0 30 20 51 45 50 58 75
58 169 4z m1805 15 c8 -15 8 -21 -1 -21 -7 0 -13 11 -13 24 -2 27 -1 27 14 -3z
m-372 -231 c-10 -10 -19 5 -10 18 6 11 8 11 12 0 2 -7 1 -15 -2 -18z m4 -23
c-13 -9 -13 -10 0 -10 22 -1 63 -58 56 -77 -5 -13 -9 -14 -19 -4 -9 9 -9 14 3
21 14 9 7 14 -12 11 -5 0 -8 6 -8 14 0 18 -12 19 -28 3 -9 -9 -12 -5 -12 20 0
24 4 32 18 32 14 0 15 -2 2 -10z m2009 -37 c-12 -15 -12 -16 4 -10 16 6 18 2
15 -31 -3 -32 -7 -37 -30 -40 -16 -2 -28 1 -28 7 0 6 6 8 14 5 13 -5 31 24 21
34 -3 3 -5 0 -5 -6 0 -7 -4 -12 -10 -12 -5 0 -8 15 -6 33 2 17 9 31 15 30 6
-2 11 2 11 9 0 6 3 8 6 5 4 -4 1 -14 -7 -24z m-2001 -47 c-4 -17 -1 -23 9 -19
8 3 13 -3 13 -17 0 -18 -4 -21 -21 -17 -16 4 -19 2 -14 -11 4 -9 8 -22 8 -29
0 -7 4 -10 9 -7 13 8 9 -10 -4 -25 -11 -10 -10 -12 2 -9 9 2 16 -6 18 -22 3
-21 2 -22 -12 -10 -14 11 -19 11 -29 0 -8 -8 -8 -11 -1 -7 7 4 18 -1 25 -10
10 -12 10 -14 2 -9 -7 4 -13 3 -13 -2 0 -5 13 -12 29 -15 20 -4 31 -14 35 -32
4 -14 13 -25 21 -25 8 0 15 -4 15 -10 0 -5 -21 -10 -47 -10 -25 0 -43 -3 -40
-7 4 -3 25 -6 46 -5 22 1 43 -3 46 -8 4 -6 11 -8 16 -4 12 7 8 -16 -6 -32 -5
-6 -17 -9 -25 -7 -19 5 -45 -21 -36 -36 3 -5 29 -15 56 -22 31 -8 47 -16 41
-22 -14 -14 18 -74 43 -81 18 -5 19 -8 6 -16 -11 -7 -11 -10 -2 -10 7 0 10 -5
7 -10 -4 -6 -3 -10 2 -9 24 4 33 -4 33 -28 0 -21 3 -24 9 -13 6 8 7 18 5 22
-7 11 8 10 26 -2 13 -8 12 -10 -2 -10 -28 0 -21 -16 15 -34 l32 -16 -35 -1
c-19 -1 -44 -1 -55 0 -11 0 0 -7 25 -17 31 -12 47 -15 52 -8 4 6 8 7 8 2 0 -5
6 -3 14 3 7 6 22 8 32 4 17 -6 16 -7 -2 -14 -17 -7 -17 -8 4 -8 24 -1 26 -8
13 -43 -4 -13 -5 -32 0 -43 7 -19 8 -19 8 3 1 24 15 29 28 10 7 -13 9 -17 12
-37 0 -5 8 -12 17 -15 14 -5 15 -4 4 9 -7 8 -8 15 -2 15 5 0 15 -7 22 -15 7
-8 19 -15 26 -15 8 0 14 -8 14 -19 0 -19 26 -48 36 -38 11 11 -26 65 -53 76
-34 14 -91 81 -69 81 7 0 24 -11 37 -25 14 -14 35 -25 51 -25 22 0 25 -4 20
-22 -3 -14 -2 -19 6 -14 8 5 12 0 12 -13 0 -15 6 -21 23 -21 17 0 23 -6 25
-26 2 -22 -1 -25 -18 -21 -11 3 -18 1 -14 -4 3 -5 12 -9 20 -9 8 0 14 -3 14
-6 0 -11 -29 -34 -43 -34 -25 0 -47 -11 -41 -21 3 -5 16 -9 28 -9 29 0 53 -25
35 -36 -19 -12 -98 -11 -96 0 1 6 -6 10 -15 10 -12 -1 -18 5 -18 18 0 17 -3
18 -15 8 -10 -9 -15 -9 -15 -1 0 6 -5 11 -11 11 -10 0 -67 40 -104 73 -11 10
-36 28 -55 39 -19 12 -46 33 -61 47 -14 14 -44 43 -67 64 -67 61 -131 192
-172 356 -21 85 -20 121 5 171 7 14 16 66 18 114 4 58 10 92 19 97 19 13 21
11 16 -15z m2322 -16 c0 -5 -2 -10 -4 -10 -3 0 -8 5 -11 10 -3 6 -1 10 4 10 6
0 11 -4 11 -10z m68 1 c9 -5 28 -14 42 -20 24 -10 23 -10 -10 -7 -44 4 -72 15
-64 27 7 11 10 11 32 0z m-2938 -42 c0 -6 7 -9 15 -6 8 4 17 2 20 -3 3 -4 -11
-14 -30 -20 -19 -6 -33 -16 -29 -21 3 -5 9 -7 13 -5 3 3 7 -4 7 -14 0 -13 -4
-16 -12 -9 -8 7 -17 5 -27 -6 -9 -8 -22 -12 -30 -9 -20 7 -57 -13 -57 -31 0
-8 -7 -15 -15 -15 -8 0 -15 -4 -15 -10 0 -5 -7 -10 -15 -10 -8 0 -15 4 -15 9
0 14 102 96 143 115 25 12 37 23 33 32 -3 8 -1 14 4 14 6 0 10 -5 10 -11z
m605 1 c3 -5 2 -10 -4 -10 -5 0 -13 5 -16 10 -3 6 -2 10 4 10 5 0 13 -4 16
-10z m2440 0 c3 -5 -1 -10 -9 -10 -9 0 -16 5 -16 10 0 6 4 10 9 10 6 0 13 -4
16 -10z m217 -6 c12 -7 14 -14 8 -24 -5 -8 -10 -10 -10 -4 0 7 -9 14 -20 17
-17 4 -20 2 -15 -14 4 -11 2 -19 -5 -19 -7 0 -14 9 -17 20 -7 25 -43 27 -43 3
-1 -16 -2 -16 -15 1 -8 11 -15 23 -15 28 0 10 111 4 132 -8z m-167 -4 c-3 -5
-13 -10 -21 -10 -8 0 -12 5 -9 10 3 6 13 10 21 10 8 0 12 -4 9 -10z m-2490
-35 c0 -11 4 -27 8 -35 5 -8 -3 -2 -17 13 -30 33 -33 50 -8 45 9 -2 17 -12 17
-23z m2732 -17 c-3 -8 -6 -5 -6 6 -1 11 2 17 5 13 3 -3 4 -12 1 -19z m-170 -4
c-3 -3 -12 -4 -19 -1 -8 3 -5 6 6 6 11 1 17 -2 13 -5z m-307 -14 c0 -5 -5 -10
-11 -10 -5 0 -7 5 -4 10 3 6 8 10 11 10 2 0 4 -4 4 -10z m480 -25 c5 3 10 2
10 -4 0 -5 -7 -14 -16 -19 -9 -5 -14 -14 -10 -21 10 -16 26 -14 26 4 0 9 6 22
12 29 10 11 18 2 41 -48 24 -52 33 -55 13 -5 -5 12 0 18 19 21 19 4 25 2 21
-8 -6 -16 10 -19 19 -4 6 10 35 2 35 -10 0 -5 27 -37 60 -71 57 -58 77 -95 46
-83 -9 3 -16 -5 -21 -23 -5 -18 -10 -22 -12 -12 -2 8 -16 20 -31 26 l-27 11
25 1 c46 2 55 18 16 25 -20 4 -42 4 -48 0 -7 -5 -9 -2 -5 8 7 21 -3 31 -19 17
-19 -16 -81 -32 -66 -17 17 17 15 28 -5 21 -13 -5 -15 -2 -10 11 4 10 3 15 -3
11 -6 -3 -10 0 -10 7 0 7 -9 19 -20 26 -11 7 -17 18 -14 27 4 10 0 15 -10 15
-9 0 -16 -4 -16 -10 0 -5 -5 -10 -11 -10 -5 0 -8 4 -4 10 7 11 -25 50 -41 50
-7 0 -14 7 -18 15 -3 8 -12 15 -21 15 -8 0 -15 4 -15 10 0 11 30 1 48 -17 21
-20 32 -15 33 15 0 26 0 27 10 4 5 -13 13 -20 19 -17z m90 0 c12 -15 5 -39 -9
-30 -12 7 -21 45 -11 45 4 0 13 -7 20 -15z m-3514 -10 c-21 -16 -32 -13 -21 4
3 6 14 11 23 11 15 -1 15 -2 -2 -15z m684 5 c0 -5 -2 -10 -4 -10 -3 0 -8 5
-11 10 -3 6 -1 10 4 10 6 0 11 -4 11 -10z m-781 -63 c8 -11 5 -13 -19 -9 -17
2 -30 8 -30 13 0 14 36 11 49 -4z m-79 -48 c0 -5 -7 -6 -15 -3 -8 4 -15 13
-15 21 0 13 3 13 15 3 8 -7 15 -16 15 -21z m3285 11 c3 -5 1 -10 -4 -10 -6 0
-11 5 -11 10 0 6 2 10 4 10 3 0 8 -4 11 -10z m-3170 -10 c3 -5 1 -10 -4 -10
-6 0 -11 5 -11 10 0 6 2 10 4 10 3 0 8 -4 11 -10z m-80 -10 c3 -5 1 -10 -4
-10 -6 0 -11 5 -11 10 0 6 2 10 4 10 3 0 8 -4 11 -10z m45 -10 c0 -5 -4 -10
-10 -10 -5 0 -10 5 -10 10 0 6 5 10 10 10 6 0 10 -4 10 -10z m15 -30 c3 -5 2
-10 -4 -10 -5 0 -13 5 -16 10 -3 6 -2 10 4 10 5 0 13 -4 16 -10z m2576 -17
c13 -16 12 -17 -3 -4 -10 7 -18 15 -18 17 0 8 8 3 21 -13z m1076 -30 c3 -7 -3
-9 -17 -6 -28 8 -34 20 -8 19 12 0 23 -6 25 -13z m-3737 -15 c0 -6 -6 -5 -15
2 -8 7 -15 14 -15 16 0 2 7 1 15 -2 8 -4 15 -11 15 -16z m910 1 c0 -10 -12
-11 -34 -3 -9 3 -14 10 -11 14 6 10 45 1 45 -11z m1787 -4 c-4 -8 -2 -17 3
-20 4 -3 11 1 13 7 3 7 6 2 6 -11 1 -13 -2 -22 -5 -19 -3 4 -17 0 -32 -8 -29
-15 -47 -8 -19 7 9 6 17 21 17 34 0 14 5 25 11 25 6 0 9 -7 6 -15z m-49 -21
c-12 -12 -17 -13 -23 -3 -5 7 -4 10 2 6 6 -4 14 0 17 9 4 9 9 14 13 10 4 -3 0
-14 -9 -22z m752 -5 c0 -14 -17 -10 -23 5 -4 10 -1 13 9 9 7 -3 14 -9 14 -14z
m-2417 -46 c-17 -14 -17 -14 6 -9 18 4 21 2 12 -7 -8 -8 -16 -9 -28 -1 -23 15
-31 39 -9 31 9 -4 16 -2 16 4 0 6 5 7 11 4 6 -5 4 -12 -8 -22z m2427 1 c0 -2
-7 -4 -15 -4 -8 0 -15 4 -15 10 0 5 7 7 15 4 8 -4 15 -8 15 -10z m-3626 -39
c-4 -8 -10 -15 -15 -15 -4 0 -6 7 -3 15 4 8 10 15 15 15 4 0 6 -7 3 -15z
m3676 -25 c0 -5 -4 -10 -10 -10 -5 0 -10 5 -10 10 0 6 5 10 10 10 6 0 10 -4
10 -10z m-3679 -23 c-13 -13 -26 -3 -16 12 3 6 11 8 17 5 6 -4 6 -10 -1 -17z
m3744 13 c-3 -5 -12 -7 -20 -3 -21 7 -19 13 6 13 11 0 18 -4 14 -10z m6 -20
c5 0 9 -7 9 -15 0 -12 -4 -13 -25 -3 -27 12 -35 34 -9 24 9 -3 20 -6 25 -6z
m-3356 -20 c-3 -5 -14 -6 -25 -3 -11 3 -18 9 -15 13 3 5 14 6 25 3 11 -3 18
-9 15 -13z m80 -19 c-2 -4 9 -5 26 -3 18 3 29 0 29 -7 0 -7 -5 -9 -11 -5 -6 3
-22 -6 -35 -22 -22 -28 -23 -28 -24 -6 0 12 -4 22 -10 22 -5 0 -10 9 -10 19 0
14 5 18 20 14 11 -3 18 -8 15 -12z m3265 5 c0 -2 -7 -7 -16 -10 -8 -3 -12 -2
-9 4 6 10 25 14 25 6z m-890 -10 c0 -2 -7 -7 -16 -10 -8 -3 -12 -2 -9 4 6 10
25 14 25 6z m1557 -16 c14 -11 31 -20 38 -20 7 0 15 -7 19 -15 3 -9 0 -15 -10
-15 -8 0 -12 -5 -8 -11 3 -6 -1 -10 -12 -9 -39 4 -56 0 -51 -13 3 -8 -3 -13
-14 -13 -24 0 -24 1 10 33 28 28 31 53 6 53 -7 0 -15 -5 -17 -12 -2 -6 -12 -9
-21 -5 -19 7 -23 27 -6 27 5 0 7 -5 3 -12 -4 -7 -3 -8 4 -4 7 4 12 14 12 22 0
20 17 18 47 -6z m-267 0 c0 -5 -4 -10 -10 -10 -5 0 -10 5 -10 10 0 6 5 10 10
10 6 0 10 -4 10 -10z m-3580 -31 c0 -14 -17 -10 -23 5 -4 10 -1 13 9 9 7 -3
14 -9 14 -14z m3268 0 c-2 -6 -7 -10 -11 -10 -4 1 -17 1 -29 1 -19 0 -20 2 -8
10 20 13 53 13 48 -1z m-3823 -9 c3 -5 1 -10 -4 -10 -6 0 -11 5 -11 10 0 6 2
10 4 10 3 0 8 -4 11 -10z m4285 0 c0 -5 -2 -10 -4 -10 -3 0 -8 5 -11 10 -3 6
-1 10 4 10 6 0 11 -4 11 -10z m-2779 -71 l-10 -24 0 24 c-1 16 -5 21 -16 17
-8 -3 -15 -1 -15 4 0 6 9 10 20 10 11 0 21 6 21 13 1 6 3 5 6 -4 2 -8 -1 -26
-6 -40z m1351 29 c-7 -7 -12 -8 -12 -2 0 14 12 26 19 19 2 -3 -1 -11 -7 -17z
m1453 12 c3 -5 -1 -10 -9 -10 -9 0 -16 5 -16 10 0 6 4 10 9 10 6 0 13 -4 16
-10z m-61 -25 c-4 -8 -10 -12 -15 -9 -11 6 -2 24 11 24 5 0 7 -7 4 -15z
m-4239 -13 c-3 -3 -11 0 -18 7 -9 10 -8 11 6 5 10 -3 15 -9 12 -12z m602 12
c-3 -3 -12 -4 -19 -1 -8 3 -5 6 6 6 11 1 17 -2 13 -5z m3801 -19 c-3 -3 -9 2
-12 12 -6 14 -5 15 5 6 7 -7 10 -15 7 -18z m-608 5 c0 -5 -2 -10 -4 -10 -3 0
-8 5 -11 10 -3 6 -1 10 4 10 6 0 11 -4 11 -10z m16 -23 c-1 -18 -7 -24 -31
-25 -29 -2 -29 -1 -10 13 11 8 25 19 30 24 6 6 11 10 11 11 1 0 1 -10 0 -23z
m524 -17 c-19 -13 -30 -13 -30 0 0 6 10 10 23 10 18 0 19 -2 7 -10z m-3690
-10 c0 -5 -5 -10 -11 -10 -5 0 -7 5 -4 10 3 6 8 10 11 10 2 0 4 -4 4 -10z
m944 -21 c-7 -11 -34 -12 -34 -1 0 14 11 21 26 15 8 -3 11 -9 8 -14z m147 -12
c-6 -16 -15 -21 -32 -19 -28 5 -35 9 -25 19 4 4 16 1 28 -6 19 -12 20 -11 14
13 -5 20 -3 24 8 20 11 -4 12 -12 7 -27z m-1700 4 c-16 -10 -6 -31 15 -31 8 0
12 -5 9 -10 -8 -13 -50 15 -50 33 0 6 6 15 15 18 20 8 28 0 11 -10z m3734 -1
c3 -5 1 -10 -4 -10 -6 0 -11 5 -11 10 0 6 2 10 4 10 3 0 8 -4 11 -10z m49 -63
c0 -37 -1 -67 -4 -67 -3 0 -11 14 -17 30 -6 17 -7 28 -2 24 5 -3 9 2 9 10 0 9
-7 16 -15 16 -8 0 -15 5 -15 11 0 6 7 9 15 5 9 -3 15 0 15 10 0 8 -4 13 -8 10
-5 -3 -9 2 -9 10 0 8 7 14 15 12 10 -2 14 -21 16 -71z m-2171 48 c-3 -9 -8
-14 -10 -11 -3 3 -2 9 2 15 9 16 15 13 8 -4z m2092 5 c3 -5 2 -10 -4 -10 -5 0
-13 5 -16 10 -3 6 -2 10 4 10 5 0 13 -4 16 -10z m-1965 -10 c0 -5 -8 -10 -17
-10 -15 0 -16 2 -3 10 19 12 20 12 20 0z m-81 -27 c2 -2 -3 -3 -11 -3 -9 0
-19 7 -22 16 -6 15 -4 15 11 3 10 -7 20 -15 22 -16z m-52 -10 c-3 -5 6 -9 20
-10 50 -3 46 -21 -5 -21 -44 0 -49 3 -45 19 3 11 12 19 20 19 8 0 12 -3 10 -7z
m-1657 -7 c0 -11 -19 -15 -25 -6 -3 5 1 10 9 10 9 0 16 -2 16 -4z m90 -10 c0
-2 -7 -7 -16 -10 -8 -3 -12 -2 -9 4 6 10 25 14 25 6z m24 -21 c-6 -16 -24 -21
-24 -7 0 11 11 22 21 22 5 0 6 -7 3 -15z m-104 -15 c0 -5 -2 -10 -4 -10 -3 0
-8 5 -11 10 -3 6 -1 10 4 10 6 0 11 -4 11 -10z m1727 4 c-3 -3 -12 -4 -19 -1
-8 3 -5 6 6 6 11 1 17 -2 13 -5z m-1627 -29 c-27 -14 -36 -13 -25 4 3 6 16 11
28 11 21 -1 21 -1 -3 -15z m1814 -3 c3 -5 -1 -9 -9 -9 -8 0 -12 4 -9 9 3 4 7
8 9 8 2 0 6 -4 9 -8z m-1871 -57 c4 -8 2 -17 -3 -20 -6 -4 -10 3 -10 14 0 25
6 27 13 6z m107 -5 c-24 -15 -36 -11 -14 4 10 8 21 12 24 10 2 -3 -2 -9 -10
-14z m56 -15 c18 -13 18 -14 -5 -8 -16 4 -22 2 -18 -4 10 -15 -21 -25 -41 -13
-15 8 -14 9 6 10 13 0 22 6 22 15 0 19 11 19 36 0z m-126 -35 c0 -5 -7 -10
-15 -10 -8 0 -15 5 -15 10 0 6 7 10 15 10 8 0 15 -4 15 -10z m170 1 c0 -6 -4
-13 -10 -16 -5 -3 -10 1 -10 9 0 9 5 16 10 16 6 0 10 -4 10 -9z m-39 -36 c11
6 11 5 2 -5 -12 -14 -33 -6 -33 13 0 8 3 7 9 -2 5 -8 14 -10 22 -6z m3239 -5
c0 -5 -5 -10 -11 -10 -5 0 -7 5 -4 10 3 6 8 10 11 10 2 0 4 -4 4 -10z m-3183
-40 c2 -23 -12 -35 -22 -20 -8 13 1 40 13 40 4 0 8 -9 9 -20z m44 3 c13 -17
13 -17 -6 -3 -11 8 -22 16 -24 17 -2 2 0 3 6 3 6 0 17 -8 24 -17z m-144 -45
c-3 -7 -5 -2 -5 12 0 14 2 19 5 13 2 -7 2 -19 0 -25z m163 -8 c8 -5 11 -12 8
-16 -4 -3 -14 1 -23 10 -18 17 -9 21 15 6z m3235 0 c3 -5 2 -10 -4 -10 -5 0
-13 5 -16 10 -3 6 -2 10 4 10 5 0 13 -4 16 -10z m-3165 -25 c0 -3 -11 -4 -25
-3 -25 2 -31 9 -19 21 7 6 44 -9 44 -18z m3230 -5 c0 -5 -7 -7 -15 -4 -8 4
-12 10 -9 15 6 11 24 2 24 -11z m-3320 -4 c0 -3 -4 -8 -10 -11 -5 -3 -10 -1
-10 4 0 6 5 11 10 11 6 0 10 -2 10 -4z m110 -15 c0 -13 -28 -22 -35 -11 -3 4
1 11 7 13 20 8 28 8 28 -2z m50 5 c0 -9 -30 -14 -35 -6 -4 6 3 10 14 10 12 0
21 -2 21 -4z m3020 0 c0 -3 -4 -8 -10 -11 -5 -3 -10 -1 -10 4 0 6 5 11 10 11
6 0 10 -2 10 -4z m75 -6 c3 -5 1 -10 -4 -10 -6 0 -11 5 -11 10 0 6 2 10 4 10
3 0 8 -4 11 -10z m-3195 -10 c0 -5 -7 -10 -16 -10 -8 0 -12 5 -9 10 3 6 10 10
16 10 5 0 9 -4 9 -10z m3263 -17 c-7 -2 -19 -2 -25 0 -7 3 -2 5 12 5 14 0 19
-2 13 -5z m-3163 -18 c-7 -9 -15 -13 -17 -11 -7 7 7 26 19 26 6 0 6 -6 -2 -15z
m-70 1 c0 -3 -4 -8 -10 -11 -5 -3 -10 -1 -10 4 0 6 5 11 10 11 6 0 10 -2 10
-4z m170 -8 c0 -7 5 -6 15 2 24 20 17 0 -7 -22 -21 -18 -21 -19 -3 -13 11 4
36 9 55 11 35 4 35 4 -6 -9 -23 -8 -46 -17 -51 -20 -9 -5 -73 45 -73 56 0 2
16 4 35 5 19 1 35 -3 35 -10z m4454 -4 c23 -9 20 -23 -4 -17 -11 3 -20 9 -20
14 0 11 3 11 24 3z m-4584 -14 c0 -5 -5 -10 -11 -10 -5 0 -7 5 -4 10 3 6 8 10
11 10 2 0 4 -4 4 -10z m44 -15 c-6 -16 -24 -21 -24 -7 0 11 11 22 21 22 5 0 6
-7 3 -15z m39 1 c4 -10 1 -13 -9 -9 -7 3 -14 -1 -14 -8 0 -7 -2 -10 -5 -7 -7
7 5 38 15 38 4 0 10 -7 13 -14z m3127 -7 c0 -6 -4 -7 -10 -4 -5 3 -10 11 -10
16 0 6 5 7 10 4 6 -3 10 -11 10 -16z m-3005 -19 c-11 -5 -27 -9 -35 -9 -13 -1
-13 0 0 9 8 5 24 9 35 9 l20 0 -20 -9z"/>
<path d="M5620 5930 c0 -19 3 -21 12 -12 9 9 9 15 0 24 -9 9 -12 7 -12 -12z"/>
<path d="M3110 5109 c0 -5 5 -7 10 -4 6 3 10 8 10 11 0 2 -4 4 -10 4 -5 0 -10
-5 -10 -11z"/>
<path d="M2120 4804 c0 -8 5 -12 10 -9 6 3 10 10 10 16 0 5 -4 9 -10 9 -5 0
-10 -7 -10 -16z"/>
<path d="M2067 4383 c-4 -3 -7 -11 -7 -17 0 -6 5 -5 12 2 6 6 9 14 7 17 -3 3
-9 2 -12 -2z"/>
<path d="M2043 4332 c1 -14 5 -18 11 -12 7 7 6 14 -1 21 -9 9 -12 7 -10 -9z"/>
<path d="M2636 4225 c7 -17 2 -17 -63 -11 -62 6 -71 5 -78 -11 -5 -10 -7 -22
-6 -27 1 -5 -4 -4 -12 3 -12 9 -28 8 -78 -6 -83 -22 -125 -50 -121 -81 2 -12
0 -21 -5 -20 -5 2 -22 -9 -38 -24 -29 -27 -24 -41 5 -15 12 10 12 9 1 -5 -7
-9 -10 -22 -6 -27 3 -7 0 -8 -9 -5 -10 4 -16 1 -17 -7 0 -8 -2 -21 -4 -31 -4
-22 45 -31 66 -12 8 8 18 14 22 14 3 0 18 11 33 25 15 14 38 25 51 25 16 0 27
7 30 19 3 13 10 18 21 14 11 -5 13 -3 7 7 -5 8 7 4 27 -8 19 -12 47 -22 61
-22 25 0 56 -11 142 -51 26 -12 33 -19 20 -19 -17 0 -17 -2 -5 -10 11 -7 7
-10 -19 -10 -58 0 -164 -20 -216 -42 -95 -38 -104 -42 -109 -58 -3 -8 -12 -26
-20 -40 -8 -14 -23 -52 -32 -84 -14 -47 -15 -61 -5 -64 8 -3 3 -11 -16 -24
-20 -14 -22 -18 -8 -15 11 3 37 8 58 12 20 3 37 9 37 13 1 4 14 22 29 40 24
28 31 31 42 20 8 -7 25 -18 38 -24 18 -7 24 -19 25 -41 1 -19 -3 -29 -10 -26
-7 2 -15 0 -19 -6 -3 -6 -16 -11 -28 -12 -56 -3 57 -20 141 -22 66 -1 87 -4
73 -11 -25 -11 -28 -29 -3 -22 115 34 205 55 212 51 6 -4 10 -1 10 6 0 6 8 9
19 6 13 -3 33 7 58 29 21 19 45 34 53 34 26 0 60 66 70 137 5 36 7 70 4 74 -2
4 1 20 6 35 9 23 16 73 20 128 0 4 6 6 14 3 9 -4 16 3 19 19 3 16 0 24 -9 24
-8 0 -11 6 -7 16 3 8 0 26 -7 40 -11 20 -19 23 -48 19 -24 -2 -44 2 -61 14
-14 10 -37 22 -50 26 -20 6 -23 4 -18 -9 4 -9 2 -16 -3 -16 -6 0 -10 5 -10 10
0 6 -6 10 -12 9 -27 -3 -49 1 -44 9 2 4 -13 8 -35 8 -23 0 -44 6 -48 13 -5 8
-29 13 -62 13 -29 -1 -59 4 -66 10 -11 8 -12 7 -7 -7z m-73 -32 c-7 -2 -21 -2
-30 0 -10 3 -4 5 12 5 17 0 24 -2 18 -5z m-233 -73 c0 -5 -5 -10 -11 -10 -5 0
-7 5 -4 10 3 6 8 10 11 10 2 0 4 -4 4 -10z m291 -235 c-96 -21 -164 -45 -187
-67 -16 -15 -24 -16 -29 -7 -5 8 -4 10 3 5 7 -4 12 -1 12 8 0 33 116 75 205
75 l60 -1 -64 -13z m-87 -131 c12 -31 7 -41 -19 -36 -24 4 -36 22 -15 22 6 0
10 7 10 15 0 20 16 19 24 -1z m185 -68 c-11 -9 -69 -14 -69 -6 0 6 17 10 37
10 20 0 34 -2 32 -4z m241 -36 c0 -5 -4 -10 -10 -10 -5 0 -10 5 -10 10 0 6 5
10 10 10 6 0 10 -4 10 -10z m-430 -24 c0 -11 -19 -15 -25 -6 -3 5 1 10 9 10 9
0 16 -2 16 -4z"/>
<path d="M3703 4213 c-16 -10 -49 -16 -105 -17 -63 -1 -85 -5 -90 -16 -5 -12
-7 -12 -7 3 -1 20 -17 23 -24 5 -4 -8 -6 -7 -6 3 -1 9 -9 19 -20 22 -14 3 -17
0 -14 -13 5 -19 -28 -37 -47 -25 -6 4 -7 -1 -3 -11 5 -14 2 -16 -15 -12 -16 5
-25 0 -33 -14 -10 -18 -9 -20 6 -14 16 6 16 4 4 -10 -8 -10 -15 -12 -17 -5 -2
6 -11 11 -19 11 -10 0 -14 -6 -10 -20 3 -14 -3 -26 -20 -40 -25 -19 -25 -20
-4 -20 16 0 21 -6 21 -26 0 -14 4 -23 9 -20 5 3 11 0 13 -7 6 -14 1 -88 -6
-94 -3 -3 3 -14 13 -25 22 -23 31 -61 31 -129 0 -26 5 -51 10 -54 6 -3 10 -21
10 -38 0 -18 7 -40 15 -50 13 -18 14 -18 33 1 22 22 60 20 68 -3 4 -10 20 -12
57 -6 5 0 6 5 3 10 -3 4 6 6 19 3 13 -2 27 -13 30 -23 4 -10 10 -19 15 -19 5
0 6 8 3 17 -5 12 -2 15 10 10 8 -3 17 -1 19 5 2 6 29 -1 68 -20 94 -44 109
-48 213 -58 42 -4 67 -3 67 3 0 6 35 13 77 16 54 4 81 11 89 22 11 14 13 14
27 0 18 -17 78 -20 94 -4 11 11 34 17 71 18 15 1 22 6 19 14 -2 6 2 20 10 29
18 20 19 155 3 176 -2 1 -3 6 -4 11 0 5 -4 13 -8 17 -5 4 -8 17 -8 30 0 12 -7
25 -16 28 -12 5 -15 14 -11 35 5 23 1 33 -16 45 -15 10 -16 14 -4 10 23 -8 22
13 -2 26 -11 5 -23 19 -26 30 -4 11 -11 18 -16 15 -5 -4 -9 0 -9 7 0 15 -36
49 -43 41 -7 -6 -42 29 -50 50 -3 9 -18 18 -32 18 -14 1 -29 3 -35 4 -5 1 -13
3 -17 4 -5 1 -1 6 7 11 12 8 10 10 -10 10 -68 2 -100 6 -100 11 0 4 -7 10 -16
13 -10 4 -13 2 -8 -6 5 -8 0 -9 -17 -3 -13 4 -49 10 -79 12 -30 3 -60 9 -67
15 -8 6 -20 5 -34 -3 -17 -9 -24 -9 -27 0 -5 14 -12 13 -39 -6z m297 -233 c0
-5 -5 -10 -11 -10 -5 0 -7 5 -4 10 3 6 8 10 11 10 2 0 4 -4 4 -10z m-40 -15
c0 -8 5 -15 10 -15 6 0 10 -4 10 -9 0 -5 -10 -7 -22 -3 -15 4 -19 2 -14 -7 8
-13 7 -12 -98 4 l-38 6 33 19 c43 24 119 27 119 5z m17 -79 c13 -12 -20 -25
-38 -15 -10 5 -34 9 -53 9 -20 0 -36 5 -36 11 0 13 114 8 127 -5z m-107 -225
c0 -6 -10 -8 -21 -6 -33 6 -36 15 -6 15 15 0 27 -4 27 -9z m65 -1 c3 -5 2 -10
-4 -10 -5 0 -13 5 -16 10 -3 6 -2 10 4 10 5 0 13 -4 16 -10z"/>
<path d="M2019 4218 c-8 -24 -8 -61 -1 -53 16 16 25 55 13 55 -6 0 -11 -1 -12
-2z"/>
<path d="M3264 4138 c6 -46 6 -46 16 -20 10 23 4 52 -11 52 -5 0 -7 -15 -5
-32z"/>
<path d="M2007 4135 c-4 -8 -2 -17 3 -20 6 -4 10 3 10 14 0 25 -6 27 -13 6z"/>
<path d="M3270 4011 c0 -6 4 -13 10 -16 6 -3 7 1 4 9 -7 18 -14 21 -14 7z"/>
<path d="M2215 3880 c-3 -6 1 -7 9 -4 18 7 21 14 7 14 -6 0 -13 -4 -16 -10z"/>
<path d="M2430 3630 c0 -5 5 -10 10 -10 6 0 10 5 10 10 0 6 -4 10 -10 10 -5 0
-10 -4 -10 -10z"/>
<path d="M3420 3556 c0 -2 7 -17 15 -32 15 -29 22 -13 9 20 -5 14 -24 23 -24
12z"/>
<path d="M3728 3543 c6 -2 18 -2 25 0 6 3 1 5 -13 5 -14 0 -19 -2 -12 -5z"/>
<path d="M1862 3327 c1 -50 -5 -117 -12 -148 -13 -57 -7 -164 10 -174 7 -4 23
62 37 153 3 17 9 32 14 32 5 0 9 8 9 18 0 10 6 41 13 70 13 46 12 55 -3 80 -9
15 -29 35 -43 45 l-26 17 1 -93z"/>
<path d="M4724 3298 c-26 -20 -47 -45 -49 -58 -5 -34 -17 -58 -29 -54 -15 6
-31 -40 -20 -57 6 -11 45 -2 55 13 3 5 15 1 26 -9 22 -19 43 -79 63 -180 7
-35 16 -63 20 -63 12 0 52 99 44 111 -3 5 -10 67 -14 137 -12 184 -29 212 -96
160z"/>
<path d="M4767 2850 c-3 -11 -1 -20 4 -20 5 0 9 9 9 20 0 11 -2 20 -4 20 -2 0
-6 -9 -9 -20z"/>
<path d="M544 2546 c-3 -7 -4 -38 -2 -67 l3 -54 35 3 c32 2 80 35 80 54 0 19
-76 78 -100 78 -6 0 -13 -6 -16 -14z"/>
<path d="M2660 2135 c-7 -9 -11 -18 -8 -20 3 -3 11 1 18 10 7 9 11 18 8 20 -3
3 -11 -1 -18 -10z"/>
<path d="M2825 2110 c-3 -6 1 -7 9 -4 18 7 21 14 7 14 -6 0 -13 -4 -16 -10z"/>
<path d="M2641 2066 c-9 -11 -9 -16 0 -22 7 -4 9 -3 5 4 -3 5 0 12 6 15 7 2
10 7 7 11 -3 4 -12 0 -18 -8z"/>
<path d="M2642 1980 c0 -14 2 -19 5 -12 2 6 2 18 0 25 -3 6 -5 1 -5 -13z"/>
<path d="M2662 550 c0 -19 2 -27 5 -17 2 9 2 25 0 35 -3 9 -5 1 -5 -18z"/>
<path d="M2630 539 c0 -5 5 -7 10 -4 6 3 10 8 10 11 0 2 -4 4 -10 4 -5 0 -10
-5 -10 -11z"/>
<path d="M2606 513 c-6 -14 -5 -15 5 -6 7 7 10 15 7 18 -3 3 -9 -2 -12 -12z"/>
<path d="M2672 480 c0 -14 2 -19 5 -12 2 6 2 18 0 25 -3 6 -5 1 -5 -13z"/>
<path d="M2760 484 c0 -8 9 -14 20 -14 11 0 20 4 20 9 0 5 -9 11 -20 14 -13 3
-20 0 -20 -9z"/>
<path d="M1595 1260 c-3 -5 3 -10 14 -10 11 0 23 5 26 10 3 6 -3 10 -14 10
-11 0 -23 -4 -26 -10z"/>
<path d="M5140 1132 c0 -11 38 -42 51 -42 10 0 20 30 13 41 -3 6 -11 5 -20 -2
-11 -9 -17 -9 -29 1 -9 8 -15 9 -15 2z"/>
<path d="M5140 1071 c0 -5 5 -13 10 -16 6 -3 10 -2 10 4 0 5 -4 13 -10 16 -5
3 -10 2 -10 -4z"/>
<path d="M4474 6492 c-7 -4 -26 -31 -43 -60 -27 -46 -31 -62 -31 -126 0 -53
-6 -84 -21 -116 -23 -46 -21 -106 3 -122 24 -14 92 -8 115 11 20 16 23 33 33
163 6 80 13 156 15 169 19 97 21 89 -21 89 -22 0 -44 -4 -50 -8z"/>
<path d="M4802 6468 c-5 -18 -5 -34 0 -36 11 -5 10 -42 -2 -42 -5 0 -8 -12 -7
-27 1 -16 -2 -39 -5 -53 -5 -21 -1 -29 28 -47 45 -29 65 -29 94 2 23 25 144
70 160 60 4 -3 6 3 3 13 -2 10 7 29 21 45 20 21 26 39 26 73 l0 44 -155 0
-154 0 -9 -32z"/>
<path d="M4253 6295 c-35 -38 -49 -86 -38 -133 6 -30 34 -53 36 -29 0 7 2 19
4 27 2 8 6 30 9 48 4 18 17 50 31 71 38 61 9 72 -42 16z"/>
<path d="M3533 6116 c-26 -12 -30 -31 -10 -43 7 -4 23 -25 36 -45 23 -39 30
-40 88 -23 16 5 5 35 -12 35 -7 0 -21 17 -30 38 -26 53 -34 58 -72 38z"/>
<path d="M3405 6040 c-3 -5 -1 -10 4 -10 6 0 11 5 11 10 0 6 -2 10 -4 10 -3 0
-8 -4 -11 -10z"/>
<path d="M3373 6001 c-10 -16 -8 -22 8 -37 26 -24 36 -10 18 26 -13 29 -15 29
-26 11z"/>
<path d="M3419 6008 c-1 -2 -2 -20 -3 -40 -2 -30 1 -36 16 -35 18 1 18 9 0 56
-4 10 -1 12 8 6 9 -5 11 -4 6 3 -6 11 -24 17 -27 10z"/>
<path d="M3470 6010 c-9 -61 -5 -114 10 -133 l18 -22 16 39 c22 53 21 89 -1
84 -10 -2 -23 5 -30 17 -7 11 -13 18 -13 15z"/>
<path d="M3340 5926 c0 -50 14 -67 29 -37 17 31 13 59 -9 71 -19 10 -20 8 -20
-34z m17 -18 c-3 -8 -6 -5 -6 6 -1 11 2 17 5 13 3 -3 4 -12 1 -19z"/>
<path d="M3080 5941 c0 -5 -10 -12 -22 -14 -20 -4 -19 -4 5 -6 18 -1 27 4 27
14 0 8 -2 15 -5 15 -3 0 -5 -4 -5 -9z"/>
<path d="M3566 5935 c4 -8 8 -15 10 -15 2 0 4 7 4 15 0 8 -4 15 -10 15 -5 0
-7 -7 -4 -15z"/>
<path d="M3590 5902 c0 -7 -5 -10 -10 -7 -6 4 -10 3 -9 -2 1 -4 0 -17 -1 -28
-1 -16 -3 -15 -12 7 -8 23 -12 25 -23 15 -14 -15 -17 -65 -4 -73 5 -3 6 -10 3
-16 -4 -6 -2 -8 4 -4 6 3 13 2 17 -4 3 -5 27 -24 53 -41 26 -17 37 -22 25 -11
-18 16 -20 25 -13 48 6 23 8 25 9 8 1 -22 57 -84 76 -84 5 0 27 -9 47 -19 19
-11 39 -17 43 -13 3 4 11 -1 16 -11 13 -22 33 -22 24 1 -4 9 -8 26 -9 37 -8
61 -18 86 -33 81 -8 -3 -21 -6 -28 -6 -7 0 -16 -8 -19 -17 -3 -10 -3 -2 -1 17
2 19 -2 49 -11 65 l-14 30 4 -27 c3 -24 0 -28 -23 -28 -17 0 -22 3 -13 8 15
10 7 38 -19 65 -20 22 -31 11 -36 -37 -4 -41 -9 -42 -26 -6 -9 16 -11 28 -6
25 12 -8 11 6 -1 25 -7 11 -10 11 -10 2z m11 -119 c13 -16 12 -17 -3 -4 -10 7
-18 15 -18 17 0 8 8 3 21 -13z m199 -88 c-7 -9 -15 -13 -19 -10 -3 3 1 10 9
15 21 14 24 12 10 -5z"/>
<path d="M2830 5840 c-9 -6 -10 -10 -3 -10 6 0 15 5 18 10 8 12 4 12 -15 0z"/>
<path d="M2604 5765 c-10 -8 -14 -14 -9 -15 15 0 40 18 34 24 -3 3 -14 -1 -25
-9z"/>
<path d="M3565 5740 c10 -11 20 -20 22 -20 2 0 -2 9 -9 20 -7 11 -17 20 -22
20 -5 0 -1 -9 9 -20z"/>
<path d="M2750 5699 c0 -5 5 -7 10 -4 6 3 10 8 10 11 0 2 -4 4 -10 4 -5 0 -10
-5 -10 -11z"/>
<path d="M3867 5677 c-3 -8 8 -21 26 -32 l31 -18 -23 31 c-25 36 -27 37 -34
19z"/>
<path d="M2670 5610 c0 -11 6 -20 14 -20 9 0 12 7 9 20 -3 11 -9 20 -14 20 -5
0 -9 -9 -9 -20z"/>
<path d="M3766 5615 c4 -8 11 -15 16 -15 6 0 5 6 -2 15 -7 8 -14 15 -16 15 -2
0 -1 -7 2 -15z"/>
<path d="M3953 5583 c4 -17 1 -20 -11 -15 -9 3 3 -18 27 -46 24 -29 46 -52 48
-52 2 0 -8 18 -22 40 -14 22 -25 45 -25 52 0 7 -5 20 -11 28 -9 12 -10 11 -6
-7z"/>
<path d="M3915 5538 c10 -30 14 -34 24 -22 4 5 -1 17 -11 27 -20 19 -20 18
-13 -5z"/>
<path d="M2320 5390 c0 -11 5 -20 10 -20 6 0 10 9 10 20 0 11 -4 20 -10 20 -5
0 -10 -9 -10 -20z"/>
<path d="M4190 5309 c0 -5 5 -7 10 -4 6 3 10 8 10 11 0 2 -4 4 -10 4 -5 0 -10
-5 -10 -11z"/>
<path d="M6227 2133 c-14 -25 -16 -72 -4 -96 13 -26 15 -26 31 -9 21 25 22 98
0 106 -20 8 -22 8 -27 -1z"/>
<path d="M6476 1729 c4 -51 24 -60 24 -11 0 28 -4 42 -13 42 -8 0 -12 -11 -11
-31z"/>
<path d="M4280 1196 c0 -4 9 -19 20 -33 11 -14 20 -20 20 -14 0 7 -9 21 -20
33 -11 12 -20 18 -20 14z"/>
<path d="M4882 1060 c7 -11 17 -20 22 -20 5 0 1 9 -9 20 -10 11 -20 20 -22 20
-2 0 2 -9 9 -20z"/>
<path d="M4780 1041 c0 -5 7 -12 16 -15 24 -9 27 -7 10 9 -17 17 -26 19 -26 6z"/>
<path d="M1080 870 c0 -5 -9 -10 -20 -10 -12 0 -20 -7 -20 -16 0 -23 -25 -45
-38 -32 -7 7 -17 6 -32 -2 -12 -6 -24 -9 -27 -6 -8 8 -33 -27 -27 -36 3 -5 14
-8 26 -8 13 0 18 5 15 14 -4 10 -1 13 9 9 12 -4 10 -11 -12 -34 -32 -33 -42
-36 -40 -11 1 11 -6 17 -19 17 -15 0 -19 -6 -18 -22 2 -17 -2 -23 -17 -23 -24
0 -25 13 -3 51 26 44 7 47 -32 5 -20 -22 -41 -36 -49 -33 -8 3 -17 -1 -20 -9
-3 -9 -10 -13 -15 -9 -11 6 -16 2 -76 -80 -24 -33 -40 -61 -34 -63 5 -2 9 -10
9 -18 0 -9 -4 -13 -9 -10 -5 4 -12 -8 -16 -25 -5 -21 -10 -27 -15 -19 -5 8
-10 -2 -14 -27 -6 -34 -39 -73 -52 -60 -2 2 0 28 6 58 5 30 14 79 18 109 l9
55 10 -35 10 -35 7 40 c4 22 14 54 23 72 25 52 -11 76 -43 28 -19 -29 -31 -32
-36 -7 -3 14 -9 12 -35 -15 -34 -36 -41 -53 -73 -168 -56 -204 -60 -211 -124
-218 -112 -11 -156 -32 -234 -108 l-72 -71 0 -59 0 -59 119 0 c69 0 122 4 126
10 3 6 14 10 23 10 15 0 15 -2 2 -10 -10 -7 21 -10 98 -10 82 0 112 3 113 13
0 6 2 35 4 62 10 155 26 229 50 239 10 4 19 -2 25 -17 8 -21 9 -21 9 5 1 29
33 58 63 58 21 0 24 16 6 23 -8 3 -9 6 -2 6 6 1 9 12 6 26 -2 14 0 25 5 25 17
0 47 65 51 110 4 54 28 99 65 120 24 13 30 13 54 0 15 -9 38 -31 51 -50 12
-19 29 -42 37 -52 7 -9 11 -19 8 -22 -4 -3 -2 -6 4 -6 6 0 9 -9 6 -19 -4 -17
0 -19 23 -17 19 2 30 10 33 22 1 10 14 34 28 52 13 17 21 32 18 32 -4 0 13 16
36 36 58 48 67 63 62 99 -2 17 -6 46 -7 65 -2 19 -6 43 -10 53 -9 18 -26 23
-26 7z m6 -57 c-4 -9 -1 -20 6 -25 10 -6 8 -8 -4 -8 -10 0 -18 4 -18 9 0 5 -3
16 -6 25 -4 11 -1 16 11 16 12 0 15 -5 11 -17z m-36 -63 c0 -5 -4 -10 -10 -10
-5 0 -10 5 -10 10 0 6 5 10 10 10 6 0 10 -4 10 -10z m-160 -60 c0 -5 -4 -10
-10 -10 -5 0 -10 5 -10 10 0 6 5 10 10 10 6 0 10 -4 10 -10z m60 -20 c8 -5 11
-12 8 -16 -4 -3 -14 1 -23 10 -18 17 -9 21 15 6z m-402 -300 c-7 -11 -17 -20
-22 -20 -5 0 -1 9 9 20 10 11 20 20 22 20 2 0 -2 -9 -9 -20z m-208 -138 c0 -4
-4 -12 -9 -17 -5 -6 -11 -21 -13 -35 -2 -19 -9 -25 -28 -25 -14 0 -31 -4 -37
-8 -8 -5 -13 -4 -13 2 0 5 6 13 13 18 12 7 17 9 36 12 5 0 7 10 4 22 -4 12 0
25 8 30 18 11 39 12 39 1z m-60 -132 c0 -5 -4 -10 -10 -10 -5 0 -10 -8 -11
-17 0 -11 -3 -13 -6 -5 -2 6 -12 12 -21 12 -15 1 -14 3 2 15 23 17 46 20 46 5z
m-26 -65 c-10 -8 -23 -15 -28 -15 -6 0 -1 7 10 15 10 8 23 15 28 15 6 0 1 -7
-10 -15z"/>
<path d="M1862 818 c5 -29 14 -57 20 -63 7 -7 8 1 3 25 -4 19 -9 44 -10 55 -4
33 -5 35 -14 35 -4 0 -4 -24 1 -52z"/>
<path d="M1886 725 c4 -8 10 -15 15 -15 4 0 6 7 3 15 -4 8 -10 15 -15 15 -4 0
-6 -7 -3 -15z"/>
<path d="M5191 688 c-9 -14 -10 -23 -2 -31 6 -6 11 -21 11 -34 0 -13 5 -23 11
-23 7 0 9 18 6 51 -6 60 -9 64 -26 37z"/>
<path d="M1905 668 c4 -18 19 -61 33 -96 19 -45 29 -59 36 -51 8 8 7 13 -1 16
-7 3 -13 12 -13 21 0 10 -9 32 -20 50 -11 18 -19 36 -19 40 4 24 -3 52 -12 52
-7 0 -8 -12 -4 -32z"/>
<path d="M5261 695 c-1 -5 -3 -152 -4 -325 -2 -173 -6 -326 -10 -340 -6 -20
-6 -21 2 -5 9 19 10 19 10 -2 1 -22 5 -23 69 -23 l68 0 2 83 c2 45 5 97 9 115
3 17 1 32 -3 32 -13 0 -33 70 -30 108 2 26 -2 32 -18 33 -20 0 -19 1 2 10 13
5 20 13 17 19 -4 6 -9 23 -11 38 -3 15 -13 34 -23 42 -27 22 -47 63 -32 68 21
7 12 42 -15 52 -17 7 -24 15 -20 25 3 8 9 22 13 32 4 10 3 14 -5 9 -6 -3 -12
3 -15 16 -2 13 -5 19 -6 13z"/>
<path d="M4245 650 c3 -5 8 -10 11 -10 2 0 4 5 4 10 0 6 -5 10 -11 10 -5 0 -7
-4 -4 -10z"/>
<path d="M4398 633 c6 -2 18 -2 25 0 6 3 1 5 -13 5 -14 0 -19 -2 -12 -5z"/>
<path d="M2075 599 c-4 -6 -5 -12 -2 -15 2 -3 7 2 10 11 7 17 1 20 -8 4z"/>
<path d="M885 529 c5 -12 -2 -18 -24 -22 -17 -4 -31 -13 -31 -21 0 -17 -35
-27 -48 -14 -7 7 -16 6 -29 -1 -14 -8 -14 -11 -3 -11 12 0 10 -4 -4 -15 -11
-8 -25 -15 -32 -15 -7 0 -25 -11 -40 -25 -26 -24 -26 -25 -5 -25 11 0 21 5 21
10 0 6 9 10 20 10 11 0 20 4 20 8 0 13 75 52 98 52 12 0 24 5 27 10 3 6 15 10
26 10 27 0 35 28 15 48 -15 15 -16 15 -11 1z"/>
<path d="M2111 514 c0 -11 3 -14 6 -6 3 7 2 16 -1 19 -3 4 -6 -2 -5 -13z"/>
<path d="M4185 509 c-4 -6 -5 -12 -2 -15 2 -3 7 2 10 11 7 17 1 20 -8 4z"/>
<path d="M5496 504 c-11 -29 -19 -171 -8 -156 8 12 11 2 37 -130 2 -10 -1 -21
-6 -24 -5 -3 -9 -10 -9 -15 0 -6 4 -8 9 -5 5 3 11 -1 14 -8 3 -8 1 -17 -6 -20
-9 -5 -9 -7 1 -12 14 -7 16 -48 2 -73 -16 -30 19 -61 69 -61 32 0 41 4 42 18
1 9 2 42 4 73 1 31 5 61 9 67 3 6 2 13 -4 17 -6 4 -7 12 -3 18 11 17 3 58 -13
74 -8 8 -14 20 -14 27 0 8 -7 19 -15 26 -8 7 -12 16 -9 21 3 5 0 9 -6 9 -6 0
-8 4 -5 10 3 6 -1 7 -9 4 -12 -5 -16 0 -16 20 0 20 -5 26 -21 26 -16 0 -20 5
-16 20 3 11 1 23 -4 26 -6 3 -7 13 -5 22 3 10 2 23 -3 30 -6 11 -10 10 -15 -4z"/>
<path d="M2060 480 c-12 -7 -10 -9 7 -7 12 0 19 5 17 9 -6 10 -6 10 -24 -2z"/>
<path d="M1030 459 c0 -5 5 -7 10 -4 6 3 10 8 10 11 0 2 -4 4 -10 4 -5 0 -10
-5 -10 -11z"/>
<path d="M2075 450 c-3 -5 -1 -10 4 -10 6 0 11 5 11 10 0 6 -2 10 -4 10 -3 0
-8 -4 -11 -10z"/>
<path d="M2140 443 c0 -10 -6 -12 -21 -8 -19 6 -20 5 -8 -8 10 -11 18 -12 27
-5 6 6 12 7 12 2 0 -10 20 17 20 27 0 3 -7 6 -15 6 -8 0 -15 -7 -15 -14z"/>
<path d="M4112 433 c8 -10 13 -12 16 -4 3 9 8 9 18 0 12 -9 13 -9 9 3 -4 9
-17 16 -31 16 -20 0 -22 -3 -12 -15z"/>
<path d="M911 402 c-19 -17 -36 -30 -39 -28 -11 12 -34 -29 -42 -76 -5 -29
-16 -80 -25 -112 -9 -33 -14 -65 -11 -72 3 -7 2 -15 -2 -19 -4 -4 -8 -16 -9
-28 -1 -12 -3 -31 -5 -42 -3 -17 3 -20 40 -23 30 -2 42 0 37 8 -4 6 -2 17 5
25 6 7 17 49 24 92 8 43 26 124 40 181 15 56 26 108 24 115 -2 7 -17 -1 -37
-21z"/>
<path d="M1007 423 c3 -6 -3 -23 -12 -36 -9 -14 -15 -31 -14 -39 1 -7 -1 -21
-6 -31 -4 -10 -2 -24 6 -33 10 -13 10 -17 -2 -25 -11 -7 -11 -9 4 -9 9 0 17
-4 17 -10 0 -5 -5 -10 -11 -10 -5 0 -7 -5 -3 -11 3 -6 0 -15 -7 -20 -11 -7
-11 -9 3 -9 9 0 25 15 35 33 26 43 35 70 23 62 -12 -8 -13 19 -1 65 24 92 24
89 -8 87 -17 -1 -27 -7 -24 -14z"/>
<path d="M2196 423 c-4 -9 -2 -21 4 -27 7 -7 10 -7 10 1 0 6 3 18 6 27 3 9 2
16 -4 16 -5 0 -13 -8 -16 -17z"/>
<path d="M790 391 c0 -16 -10 -42 -23 -58 -37 -46 -72 -141 -83 -228 -3 -22
-10 -43 -17 -47 -8 -5 -7 -11 2 -22 14 -16 9 -20 -21 -17 -9 1 -19 -3 -23 -9
-4 -6 16 -10 58 -10 l65 0 7 53 c4 28 18 99 31 157 25 109 31 210 14 210 -5 0
-10 -13 -10 -29z"/>
<path d="M4121 390 c14 -31 19 -36 19 -24 0 6 -7 19 -16 30 -14 18 -14 18 -3
-6z"/>
<path d="M2137 374 c-14 -19 -15 -23 -2 -18 8 3 15 10 15 15 0 4 7 6 15 3 8
-4 15 -2 15 4 0 21 -26 18 -43 -4z"/>
<path d="M2108 383 c7 -3 16 -2 19 1 4 3 -2 6 -13 5 -11 0 -14 -3 -6 -6z"/>
<path d="M4066 373 c-4 -9 -4 -14 0 -10 4 4 14 1 23 -6 14 -11 15 -10 1 8 -8
11 -15 21 -16 23 -1 2 -5 -5 -8 -15z"/>
<path d="M2206 365 c-9 -26 -7 -32 5 -12 6 10 9 21 6 23 -2 3 -7 -2 -11 -11z"/>
<path d="M2277 367 c4 -6 -1 -8 -11 -4 -9 4 -15 3 -11 -2 3 -5 0 -11 -7 -13
-8 -3 -8 -9 0 -24 11 -19 11 -19 18 1 4 11 13 27 21 36 11 13 11 16 -2 16 -8
0 -11 -5 -8 -10z"/>
<path d="M6051 367 c-15 -19 -4 -27 36 -27 31 0 33 2 23 20 -12 23 -42 26 -59
7z"/>
<path d="M2175 349 c-4 -6 -5 -12 -2 -15 2 -3 7 2 10 11 7 17 1 20 -8 4z"/>
<path d="M2311 344 c0 -11 3 -14 6 -6 3 7 2 16 -1 19 -3 4 -6 -2 -5 -13z"/>
<path d="M2082 331 c-17 -10 1 -48 50 -103 18 -20 51 -57 73 -82 39 -46 55
-56 55 -35 0 5 -5 7 -11 3 -8 -4 -9 0 -4 15 5 15 1 23 -12 28 -25 10 -43 29
-35 38 4 5 1 5 -5 1 -8 -4 -13 -1 -13 8 0 9 -4 16 -8 16 -5 0 -15 12 -23 28
-8 15 -24 37 -37 50 -12 13 -20 28 -17 33 7 11 4 11 -13 0z"/>
<path d="M2216 318 c3 -4 9 -8 15 -8 5 0 9 4 9 8 0 5 -7 9 -15 9 -8 0 -12 -4
-9 -9z"/>
<path d="M2318 297 c-16 -22 -16 -22 -33 -2 -16 20 -16 20 -5 -2 13 -27 30
-39 31 -21 0 7 5 4 10 -7 8 -20 9 -19 6 1 -1 11 4 28 12 37 7 10 10 17 5 17
-5 -1 -17 -11 -26 -23z"/>
<path d="M4056 303 c-3 -10 -9 -25 -13 -33 -4 -10 -1 -9 12 3 16 17 18 17 30
0 7 -10 16 -16 18 -13 3 3 -5 18 -17 33 -21 26 -24 27 -30 10z"/>
<path d="M4140 311 c0 -5 5 -13 10 -16 6 -3 10 -2 10 4 0 5 -4 13 -10 16 -5 3
-10 2 -10 -4z"/>
<path d="M600 293 c0 -10 -9 -42 -20 -71 -16 -41 -18 -61 -11 -92 6 -28 6 -40
-2 -40 -6 0 -3 -6 8 -13 17 -13 17 -14 -4 -20 -11 -3 -21 -12 -21 -21 0 -9 -7
-16 -15 -16 -8 0 -15 -4 -15 -10 0 -5 11 -10 24 -10 25 0 43 35 22 45 -12 6
21 -1 53 -11 16 -5 18 0 17 48 0 29 -4 56 -9 59 -4 3 -9 43 -10 87 -1 45 -5
82 -9 82 -5 0 -8 -8 -8 -17z"/>
<path d="M2203 280 c-1 -11 3 -20 8 -20 6 0 8 -4 5 -9 -3 -5 4 -11 15 -14 19
-5 20 -4 5 12 -9 10 -14 25 -10 35 4 10 1 16 -8 16 -7 0 -14 -9 -15 -20z"/>
<path d="M2350 295 c0 -2 10 -10 23 -16 20 -11 21 -11 8 4 -13 16 -31 23 -31
12z"/>
<path d="M2406 273 c-6 -14 -5 -15 5 -6 7 7 10 15 7 18 -3 3 -9 -2 -12 -12z"/>
<path d="M5750 273 c0 -29 10 -53 22 -53 6 0 7 11 3 28 -9 36 -25 52 -25 25z"/>
<path d="M3965 260 c3 -5 8 -10 11 -10 2 0 4 5 4 10 0 6 -5 10 -11 10 -5 0 -7
-4 -4 -10z"/>
<path d="M2377 242 c-3 -4 1 -13 9 -19 7 -7 15 -9 17 -5 3 4 -1 13 -9 19 -7 7
-15 9 -17 5z"/>
<path d="M3947 243 c-4 -3 -7 -11 -7 -16 0 -6 3 -7 7 -4 3 4 12 2 20 -4 8 -7
13 -8 13 -1 0 14 -25 33 -33 25z"/>
<path d="M2315 230 c3 -5 10 -10 16 -10 5 0 9 5 9 10 0 6 -7 10 -16 10 -8 0
-12 -4 -9 -10z"/>
<path d="M2350 223 c0 -15 18 -35 23 -27 3 5 -1 15 -9 22 -8 7 -14 9 -14 5z"/>
<path d="M2266 204 c-9 -24 -2 -26 12 -4 7 11 8 20 3 20 -5 0 -12 -7 -15 -16z"/>
<path d="M4107 196 c10 -13 19 -23 21 -21 5 5 -22 45 -31 45 -4 0 0 -11 10
-24z"/>
<path d="M1032 190 c0 -14 2 -19 5 -12 2 6 2 18 0 25 -3 6 -5 1 -5 -13z"/>
<path d="M4065 180 c9 -16 18 -30 21 -30 2 0 -2 14 -11 30 -9 17 -18 30 -21
30 -2 0 2 -13 11 -30z"/>
<path d="M5485 200 c-3 -5 -2 -10 4 -10 5 0 13 5 16 10 3 6 2 10 -4 10 -5 0
-13 -4 -16 -10z"/>
<path d="M5762 193 c5 -25 28 -28 28 -4 0 12 -6 21 -16 21 -9 0 -14 -7 -12
-17z"/>
<path d="M3874 175 c-5 -19 -10 -23 -19 -15 -15 12 -25 3 -25 -24 0 -12 -5
-28 -11 -36 -8 -12 -10 -9 -6 12 2 15 0 25 -4 22 -5 -3 -9 -15 -10 -27 0 -15
-2 -17 -6 -7 -9 22 -33 44 -33 29 0 -8 -5 -8 -17 2 -16 13 -17 12 -4 -3 7 -10
17 -16 21 -13 9 5 33 -55 26 -63 -3 -2 -8 7 -12 22 -3 14 -10 26 -15 26 -12 0
-11 -8 7 -55 15 -39 17 -41 58 -41 l43 1 -10 30 c-8 20 -12 25 -15 14 -3 -17
-39 -33 -45 -21 -2 4 -1 18 4 32 4 14 8 18 8 10 1 -11 6 -9 20 7 10 12 21 19
25 16 3 -4 6 0 6 8 1 8 8 1 16 -14 12 -22 13 -32 4 -42 -7 -8 -8 -20 -4 -26
11 -18 25 27 18 57 -4 15 -2 24 5 24 6 0 1 10 -11 22 -13 13 -17 23 -10 26 6
2 8 11 5 20 -6 15 -5 16 12 2 17 -14 18 -14 6 8 -15 28 -19 28 -27 -3z m-16
-50 c-3 -3 -9 2 -12 12 -6 14 -5 15 5 6 7 -7 10 -15 7 -18z"/>
<path d="M2425 180 c-3 -6 1 -7 9 -4 18 7 21 14 7 14 -6 0 -13 -4 -16 -10z"/>
<path d="M2486 174 c-4 -9 -4 -19 -1 -22 2 -3 7 3 11 12 4 9 4 19 1 22 -2 3
-7 -3 -11 -12z"/>
<path d="M3977 184 c-9 -9 4 -35 14 -28 5 3 9 12 9 20 0 14 -12 19 -23 8z"/>
<path d="M3920 169 c0 -5 5 -7 10 -4 6 3 10 8 10 11 0 2 -4 4 -10 4 -5 0 -10
-5 -10 -11z"/>
<path d="M4020 173 c0 -7 -10 -23 -21 -34 -17 -17 -23 -18 -29 -8 -12 18 -40
21 -33 2 4 -10 8 -11 13 -3 5 8 9 6 14 -6 4 -10 1 -21 -6 -25 -10 -7 -10 -11
0 -21 9 -9 12 -8 12 5 0 10 7 20 15 23 8 4 15 13 15 22 0 13 3 12 15 -4 13
-18 14 -18 8 5 -4 17 -3 22 5 17 14 -9 15 3 2 24 -6 10 -10 11 -10 3z"/>
<path d="M2507 150 c-3 -11 -1 -20 4 -20 5 0 9 9 9 20 0 11 -2 20 -4 20 -2 0
-6 -9 -9 -20z"/>
<path d="M2551 144 c-1 -6 6 -17 14 -24 13 -10 15 -9 15 11 0 17 -3 20 -9 10
-7 -11 -9 -11 -14 0 -3 8 -6 9 -6 3z"/>
<path d="M5241 134 c0 -11 3 -14 6 -6 3 7 2 16 -1 19 -3 4 -6 -2 -5 -13z"/>
<path d="M2387 133 c-7 -11 14 -27 38 -31 18 -4 18 -2 -4 17 -27 24 -28 24
-34 14z"/>
<path d="M3900 130 c-13 -8 -13 -10 2 -10 9 0 21 -12 26 -27 6 -16 11 -21 11
-13 0 8 -5 25 -12 37 -9 16 -16 20 -27 13z"/>
<path d="M2701 104 c0 -11 3 -14 6 -6 3 7 2 16 -1 19 -3 4 -6 -2 -5 -13z"/>
<path d="M5760 111 c0 -5 7 -11 15 -15 8 -3 15 -1 15 3 0 5 -7 11 -15 15 -8 3
-15 1 -15 -3z"/>
<path d="M2274 97 c-8 -22 -1 -31 52 -67 46 -31 70 -34 41 -6 -8 8 -17 12 -21
9 -3 -4 -6 1 -6 11 0 9 -4 14 -10 11 -5 -3 -10 -2 -10 3 0 5 -9 19 -20 32 -17
19 -21 20 -26 7z"/>
<path d="M2675 101 c-3 -5 -1 -12 5 -16 5 -3 10 1 10 9 0 18 -6 21 -15 7z"/>
<path d="M2814 85 c-3 -8 -4 -20 -2 -27 3 -7 7 -1 10 15 6 29 1 36 -8 12z"/>
<path d="M3672 88 c3 -7 9 -13 14 -13 5 0 15 -4 22 -9 10 -6 13 -3 10 10 -2
11 -13 20 -27 22 -16 3 -22 -1 -19 -10z"/>
<path d="M3993 93 c-15 -5 -17 -23 -4 -23 5 0 11 7 15 15 3 8 4 15 3 14 -1 0
-8 -3 -14 -6z"/>
<path d="M2520 80 c-8 -5 -12 -11 -9 -14 2 -3 11 -1 19 4 8 5 12 11 9 14 -2 3
-11 1 -19 -4z"/>
<path d="M2743 75 c-3 -9 -3 -18 -1 -21 3 -3 8 4 11 16 6 23 -1 27 -10 5z"/>
<path d="M2842 70 c0 -14 2 -19 5 -12 2 6 2 18 0 25 -3 6 -5 1 -5 -13z"/>
<path d="M3637 60 c7 -35 -4 -40 -17 -7 -7 17 -9 18 -9 5 -1 -10 -5 -18 -11
-18 -5 0 -10 -7 -10 -16 0 -8 -5 -12 -10 -9 -6 4 -8 11 -5 16 11 17 -6 31 -21
18 -11 -9 -18 -9 -29 1 -13 11 -14 10 -9 -4 3 -9 10 -16 15 -16 5 0 9 -5 9
-11 0 -5 -4 -7 -10 -4 -5 3 -10 2 -10 -4 0 -5 31 -9 70 -9 43 0 70 5 70 11 0
7 4 7 12 -1 18 -18 38 -14 38 8 0 11 4 20 10 20 5 0 7 -7 4 -15 -4 -9 1 -18
11 -21 29 -11 35 9 14 51 -11 22 -16 31 -13 20 4 -11 8 -31 10 -45 4 -23 4
-23 -5 -4 -12 26 -42 39 -52 22 -6 -9 -10 -8 -15 6 -5 14 -9 15 -16 4 -7 -9
-8 -7 -5 10 3 14 0 22 -9 22 -10 0 -12 -8 -7 -30z"/>
<path d="M2430 70 c0 -5 5 -10 11 -10 5 0 7 5 4 10 -3 6 -8 10 -11 10 -2 0 -4
-4 -4 -10z"/>
<path d="M3910 68 c0 -9 5 -20 10 -23 13 -8 13 5 0 25 -8 13 -10 13 -10 -2z"/>
<path d="M6360 51 c11 -41 19 -51 35 -51 11 0 10 8 -6 35 -28 46 -40 53 -29
16z"/>
<path d="M961 54 c0 -11 3 -14 6 -6 3 7 2 16 -1 19 -3 4 -6 -2 -5 -13z"/>
<path d="M2790 54 c0 -8 -4 -13 -9 -10 -4 3 -6 -6 -3 -19 5 -28 27 -33 36 -9
10 26 7 29 -9 8 -14 -18 -14 -17 -9 14 4 17 4 32 0 32 -3 0 -6 -7 -6 -16z"/>
<path d="M5762 35 c1 -21 7 -35 15 -35 14 0 17 27 7 54 -11 29 -25 17 -22 -19z"/>
<path d="M2692 40 c0 -14 2 -19 5 -12 2 6 2 18 0 25 -3 6 -5 1 -5 -13z"/>
<path d="M2881 33 c-1 -24 3 -33 15 -33 12 0 14 3 6 13 -5 6 -12 21 -15 32 -3
13 -5 9 -6 -12z"/>
<path d="M4105 49 c-4 -6 -5 -12 -2 -15 2 -3 7 2 10 11 7 17 1 20 -8 4z"/>
<path d="M2612 41 c-10 -6 -10 -10 3 -21 13 -11 15 -9 15 9 0 24 0 24 -18 12z"/>
<path d="M3072 25 c0 -17 2 -22 5 -12 2 9 2 23 0 30 -3 6 -5 -1 -5 -18z"/>
<path d="M3204 41 c4 -6 2 -11 -3 -11 -6 0 -11 -5 -11 -11 0 -5 5 -7 11 -3 6
3 15 0 21 -7 6 -10 8 -7 6 10 -2 14 -9 26 -17 29 -8 3 -11 0 -7 -7z"/>
<path d="M3417 44 c-11 -11 -8 -26 3 -19 6 3 13 -1 16 -9 8 -20 24 -21 24 -1
0 8 -6 15 -14 15 -8 0 -16 5 -18 11 -2 5 -7 7 -11 3z"/>
<path d="M3980 46 c0 -2 8 -10 18 -17 15 -13 16 -12 3 4 -13 16 -21 21 -21 13z"/>
<path d="M2861 24 c0 -11 3 -14 6 -6 3 7 2 16 -1 19 -3 4 -6 -2 -5 -13z"/>
<path d="M3095 31 c-3 -5 -1 -12 5 -16 5 -3 10 1 10 9 0 18 -6 21 -15 7z"/>
<path d="M3387 34 c-6 -10 9 -42 16 -34 3 3 1 14 -3 24 -3 11 -9 15 -13 10z"/>
<path d="M3900 31 c0 -5 5 -13 10 -16 6 -3 10 -2 10 4 0 5 -4 13 -10 16 -5 3
-10 2 -10 -4z"/>
<path d="M2710 20 c0 -8 25 -20 41 -20 20 0 7 18 -16 22 -14 3 -25 2 -25 -2z"/>
<path d="M2981 14 c0 -11 3 -14 6 -6 3 7 2 16 -1 19 -3 4 -6 -2 -5 -13z"/>
<path d="M3120 13 c0 -15 2 -16 10 -3 6 9 10 10 10 3 0 -6 9 -11 20 -10 31 2
23 22 -10 25 -23 2 -30 -2 -30 -15z"/>
<path d="M3240 15 c0 -8 4 -15 10 -15 5 0 7 7 4 15 -4 8 -8 15 -10 15 -2 0 -4
-7 -4 -15z"/>
</g>
</svg>
